<svg xmlns="http://www.w3.org/2000/svg" xmlns:xlink="http://www.w3.org/1999/xlink" width="49.462" height="51.41" viewBox="0 0 49.462 51.41">
  <defs>
    <clipPath id="clip-path">
      <rect id="Rectangle_5" data-name="Rectangle 5" width="49.462" height="51.41" fill="#f7a014"/>
    </clipPath>
  </defs>
  <g id="Group_4" data-name="Group 4" transform="translate(0 0)">
    <g id="Group_3" data-name="Group 3" transform="translate(0 0)" clip-path="url(#clip-path)">
      <path id="Path_7" data-name="Path 7" d="M49.462,160.365c-.348.86-.662,1.735-1.048,2.577a24.9,24.9,0,0,1-9.085,10.607,25.2,25.2,0,0,1-9.941,3.853,24.2,24.2,0,0,1-6,.263A25.189,25.189,0,0,1,7,169.954,24.439,24.439,0,0,1,.519,157.664a23.98,23.98,0,0,1-.439-6.892A24.793,24.793,0,0,1,4,139.21a25.58,25.58,0,0,1,4.294-5.052c.041-.037.083-.073.194-.169a25.006,25.006,0,0,0,12.6,29.762,24.871,24.871,0,0,0,14.678,2.59,25.387,25.387,0,0,0,13.609-6.03l.085.054" transform="translate(0 -126.336)" fill="#f7a014"/>
      <path id="Path_8" data-name="Path 8" d="M258.129,83.692c-.367-1.242-.731-2.486-1.1-3.727-.1-.345-.227-.684-.347-1.024a2.964,2.964,0,0,0-1.968-1.954c-1.183-.377-2.377-.722-3.566-1.08-.416-.125-.833-.245-1.339-.393.255-.078.428-.132.6-.183q1.843-.54,3.686-1.08c.209-.062.412-.146.618-.216a2.97,2.97,0,0,0,1.972-1.987c.414-1.291.8-2.592,1.195-3.889.085-.278.169-.556.279-.918.17.563.315,1.047.463,1.53.321,1.052.639,2.105.967,3.155a3.085,3.085,0,0,0,2.135,2.154c1.4.428,2.8.837,4.2,1.254a1.929,1.929,0,0,1,.5.209c-.886.254-1.775.5-2.658.764-.772.232-1.542.472-2.3.737a2.728,2.728,0,0,0-1.755,1.754c-.388,1.14-.73,2.3-1.088,3.446-.151.483-.294.969-.441,1.453l-.055-.006" transform="translate(-235.54 -63.401)" fill="#f7a014"/>
      <path id="Path_9" data-name="Path 9" d="M565.269,286.4c.211.718.4,1.379.6,2.035q.2.653.429,1.3a1.9,1.9,0,0,0,1.256,1.234c.975.312,1.959.6,2.939.892l.43.133c-.884.256-1.688.486-2.49.722-.273.081-.542.176-.811.267a2.009,2.009,0,0,0-1.349,1.328c-.3.92-.574,1.847-.859,2.772-.045.145-.089.289-.155.506-.171-.579-.319-1.094-.475-1.606-.168-.553-.337-1.107-.519-1.655a1.976,1.976,0,0,0-1.342-1.333c-.986-.309-1.976-.6-2.964-.9l-.289-.088a2.017,2.017,0,0,1,.192-.084c.954-.285,1.908-.571,2.863-.851a2.219,2.219,0,0,0,1.609-1.584c.279-.946.564-1.89.848-2.835.019-.062.044-.122.089-.246" transform="translate(-527.704 -270.039)" fill="#f7a014"/>
      <path id="Path_10" data-name="Path 10" d="M509.89,5.569c1-.289,1.936-.577,2.88-.823a2.474,2.474,0,0,0,1.91-1.867c.233-.86.507-1.71.763-2.564.025-.081.052-.162.1-.315.19.644.357,1.223.532,1.8.143.472.3.941.447,1.411a2.059,2.059,0,0,0,1.444,1.414c.963.29,1.928.571,2.892.855l.311.094c-.385.115-.709.21-1.033.308-.744.225-1.49.445-2.231.68a2.016,2.016,0,0,0-1.375,1.376c-.313.985-.608,1.976-.911,2.964-.019.062-.042.124-.088.257-.174-.581-.326-1.1-.484-1.614-.167-.544-.335-1.088-.513-1.628a2,2,0,0,0-1.361-1.353c-1-.313-2.015-.608-3.022-.912-.062-.019-.124-.04-.262-.085" transform="translate(-480.768 0.001)" fill="#f7a014"/>
      <path id="Path_11" data-name="Path 11" d="M257.12,368.476a1.681,1.681,0,0,1,3.361.007,1.68,1.68,0,0,1-3.361-.007" transform="translate(-242.435 -345.88)" fill="#f7a014"/>
      <path id="Path_12" data-name="Path 12" d="M403.868,541.741a1.041,1.041,0,1,1-1.038-1.043,1,1,0,0,1,1.038,1.043" transform="translate(-378.839 -509.817)" fill="#f7a014"/>
    </g>
  </g>
</svg>
