<svg xmlns="http://www.w3.org/2000/svg" xmlns:xlink="http://www.w3.org/1999/xlink" width="64.815" height="46.624" viewBox="0 0 64.815 46.624">
  <defs>
    <clipPath id="clip-path">
      <path id="Path_934" data-name="Path 934" d="M6.874,41.931a7.588,7.588,0,0,0-.719,2.2,4.254,4.254,0,0,0,.046,1.8c.138.457.387.733.737.752l-.171-.009c-.042.713-.045,1.427-.018,2.14a6.869,6.869,0,0,0-.654-1.082c-.277-.387-.6-.8-.962-1.214a15.388,15.388,0,0,0-2.445-2.323,8.416,8.416,0,0,0,.507,2.634,8.915,8.915,0,0,0,.523,1.17,8.689,8.689,0,0,0,.637.981c.11.145.219.279.331.4s.232.236.346.337a3.1,3.1,0,0,0,.661.46.879.879,0,0,0,1.044-.036.693.693,0,0,0,.083-.093c.025.487.107.968.163,1.451.026.243.081.48.12.72s.082.48.133.718a5.786,5.786,0,0,0-1.062-1.064,16.059,16.059,0,0,0-1.56-1.14,20.223,20.223,0,0,0-1.846-1.1,12.788,12.788,0,0,0-1.95-.858c.08.263.169.524.269.78s.227.509.352.755.255.486.4.719.3.456.459.671.319.421.483.616.348.378.524.551a7.691,7.691,0,0,0,1.066.892c1.426.993,2.734,1.148,3.114.418.011-.021.021-.043.03-.064.151.522.286,1.05.471,1.561.091.256.166.518.27.77l.3.759a10.678,10.678,0,0,0-3.576-1.617,23.949,23.949,0,0,0-2.47-.6A12.384,12.384,0,0,0,0,54.74a9.973,9.973,0,0,0,1.2,1.5q.331.345.678.656c.233.206.482.4.725.577s.491.347.736.5.5.289.754.413a8.446,8.446,0,0,0,1.456.58,5.168,5.168,0,0,0,2.389.206c.622-.129,1.01-.425,1.1-.894A25.412,25.412,0,0,0,10.9,61.54,5.429,5.429,0,0,0,9.3,61.006a17.457,17.457,0,0,0-2.228-.311,21.7,21.7,0,0,0-2.542-.082,12.276,12.276,0,0,0-2.495.284c.228.227.462.446.707.651s.51.394.771.574a10.288,10.288,0,0,0,1.624.917,9.89,9.89,0,0,0,1.645.586,8.275,8.275,0,0,0,1.545.266,6.513,6.513,0,0,0,1.335-.019,3.97,3.97,0,0,0,1.046-.269c.578-.25.907-.627.891-1.1a24.012,24.012,0,0,0,2.5,2.805,10.681,10.681,0,0,0-3.927-.044,23.05,23.05,0,0,0-2.5.438,12.715,12.715,0,0,0-2.388.794c.133.089.268.175.4.257s.282.157.425.23c.285.148.574.284.864.409a11.915,11.915,0,0,0,1.775.565,11.773,11.773,0,0,0,1.729.238,9.509,9.509,0,0,0,1.569-.057,6.278,6.278,0,0,0,1.307-.3,3.909,3.909,0,0,0,.966-.472,1.222,1.222,0,0,0,.652-1.259c.466.419.964.8,1.46,1.183l.766.545c.256.181.525.342.787.513A5.907,5.907,0,0,0,16.3,68.5c-.327.067-.677.155-1.044.261s-.737.213-1.124.344-.785.278-1.182.435-.789.321-1.179.5a12.473,12.473,0,0,0-2.181,1.268,11.237,11.237,0,0,0,1.845.527c.314.057.626.1.935.135.154.017.307.031.46.041s.309.011.461.013a9.775,9.775,0,0,0,3.262-.486c1.857-.656,2.844-1.719,2.453-2.583a24.55,24.55,0,0,0,3.407,1.58,5.516,5.516,0,0,0-1.617.489c-.306.13-.629.286-.965.462-.168.088-.339.181-.513.279s-.345.192-.52.294a23.251,23.251,0,0,0-2.121,1.4A12.341,12.341,0,0,0,14.8,75.145c.318.052.637.092.955.119a9.361,9.361,0,0,0,.96.024c.318-.006.632-.022.94-.051s.619-.084.916-.141.586-.121.867-.2.555-.174.815-.272a8.263,8.263,0,0,0,1.415-.675,5.137,5.137,0,0,0,1.776-1.613,1.212,1.212,0,0,0,.091-1.411,25.7,25.7,0,0,0,3.661.841,5.382,5.382,0,0,0-1.483.815,17.213,17.213,0,0,0-1.743,1.424,21.68,21.68,0,0,0-1.788,1.806,12.4,12.4,0,0,0-1.488,2.024,9.261,9.261,0,0,0,.959-.078c.32-.046.636-.1.945-.173a10.4,10.4,0,0,0,1.778-.569,9.876,9.876,0,0,0,1.549-.809,8.181,8.181,0,0,0,1.245-.954,6.758,6.758,0,0,0,.893-.991,4,4,0,0,0,.513-.953,1.208,1.208,0,0,0-.2-1.4L29.56,72l1.013.026a.172.172,0,0,0,.009-.343l-1-.026-1.169-.087a1.243,1.243,0,0,0,.429-1.35,5.44,5.44,0,0,0-.263-1.011c-.126-.37-.285-.763-.465-1.163s-.381-.8-.587-1.227-.428-.815-.643-1.233-.441-.787-.656-1.171q-.164-.281-.329-.535c-.111-.168-.216-.345-.327-.5a11.924,11.924,0,0,0-.3,2.418,10.671,10.671,0,0,0,.222,2.377,7.857,7.857,0,0,0,.717,2,3.823,3.823,0,0,0,1.042,1.255,25.366,25.366,0,0,1-3.608-.828c.449-.155.657-.612.7-1.232a8.9,8.9,0,0,0-.265-2.278c-.1-.421-.2-.875-.32-1.323-.059-.224-.121-.447-.185-.667l-.189-.673c-.065-.221-.132-.437-.2-.646s-.132-.43-.2-.634-.144-.394-.213-.592-.142-.381-.219-.556a11.917,11.917,0,0,0-.789,2.3,10.338,10.338,0,0,0-.271,2.371c0,.193.007.383.019.57s.034.362.059.538a7.154,7.154,0,0,0,.213.995,3.752,3.752,0,0,0,.759,1.447,24.215,24.215,0,0,1-3.358-1.558c.941-.1,1.163-1.6,1.139-3.339,0-.888-.063-1.833-.135-2.754q-.017-.17-.033-.338l-.029-.342c-.021-.225-.045-.445-.073-.657-.056-.425-.106-.846-.193-1.211a11.8,11.8,0,0,0-1.236,2.087,11.372,11.372,0,0,0-.45,1.135,9.908,9.908,0,0,0-.3,1.133,9.043,9.043,0,0,0-.154,1.106,7.05,7.05,0,0,0,.01,1.011,3.594,3.594,0,0,0,.447,1.571c-.258-.17-.524-.328-.776-.506l-.755-.537c-.488-.378-.98-.753-1.439-1.167.472.04.842-.289,1.13-.846a5.557,5.557,0,0,0,.378-.982c.109-.371.2-.773.291-1.21s.163-.883.231-1.339.139-.928.19-1.38.106-.909.142-1.339c.021-.218.037-.429.046-.633s.012-.406.018-.6a11.7,11.7,0,0,0-1.641,1.8,10.435,10.435,0,0,0-1.2,2.069,5.463,5.463,0,0,0-.451,3.67A23.612,23.612,0,0,1,11.871,62.3c.458.132.888-.116,1.282-.6a5.479,5.479,0,0,0,.565-.881c.181-.34.365-.727.536-1.13s.332-.826.5-1.265.309-.869.468-1.311.279-.86.412-1.279c.063-.207.119-.409.167-.605s.107-.394.146-.581a11.983,11.983,0,0,0-1.98,1.423,10.637,10.637,0,0,0-1.591,1.777,7.814,7.814,0,0,0-.979,1.885,3.807,3.807,0,0,0-.214,1.617,25.047,25.047,0,0,1-1.842-3.211c.844.451,1.864-.628,2.865-2.067.241-.356.509-.745.754-1.135l.364-.589q.188-.3.365-.6l.339-.587c.116-.2.226-.389.328-.578.195-.375.4-.746.549-1.094a11.174,11.174,0,0,0-4.148,2.395,5.463,5.463,0,0,0-1.89,3.182l-.295-.748c-.1-.248-.176-.506-.266-.759-.183-.5-.315-1.024-.465-1.539.019.014.039.027.06.04.726.433,1.673-.444,2.623-1.642.227-.3.479-.622.709-.951q.174-.247.337-.5c.118-.169.231-.339.34-.509s.212-.339.309-.507.207-.338.3-.5.18-.333.257-.5.167-.326.235-.487a8.9,8.9,0,0,0-3.572,1.769A7.386,7.386,0,0,0,8.2,51.553a4.122,4.122,0,0,0-.63,1.31c-.05-.235-.087-.472-.131-.708s-.093-.471-.118-.71c-.055-.477-.136-.951-.16-1.43a.639.639,0,0,0,.1.076.93.93,0,0,0,1.036-.141,3.778,3.778,0,0,0,.589-.49c.1-.1.2-.205.3-.317s.208-.232.31-.356c.205-.248.4-.515.594-.792s.388-.566.567-.857a10.733,10.733,0,0,0,.9-1.754,7.032,7.032,0,0,0-2.8,1.335,6.288,6.288,0,0,0-1.038,1.024,4.088,4.088,0,0,0-.62,1.052c-.026-.7-.023-1.407.018-2.11l-.171-.009c.7.029,1.087-.94,1.285-2.224a16.5,16.5,0,0,0,.044-4.421,6.753,6.753,0,0,0-1.394,1.9" transform="translate(0 -40.031)" fill="none"/>
    </clipPath>
    <linearGradient id="linear-gradient" x1="0.167" y1="0.891" x2="0.172" y2="0.891" gradientUnits="objectBoundingBox">
      <stop offset="0" stop-color="#fffeec"/>
      <stop offset="0.045" stop-color="#fffce2"/>
      <stop offset="0.119" stop-color="#fff8c9"/>
      <stop offset="0.213" stop-color="#fff2a0"/>
      <stop offset="0.249" stop-color="#fff08f"/>
      <stop offset="0.408" stop-color="#ebbf51"/>
      <stop offset="0.842" stop-color="#fef0cb"/>
      <stop offset="1" stop-color="#eab042"/>
    </linearGradient>
    <clipPath id="clip-path-2">
      <path id="Path_935" data-name="Path 935" d="M177.184,44.452c.2,1.284.585,2.253,1.286,2.224l-.171.009c.041.7.044,1.407.018,2.11a4.087,4.087,0,0,0-.62-1.052,6.3,6.3,0,0,0-1.038-1.024,7.032,7.032,0,0,0-2.8-1.335,10.713,10.713,0,0,0,.9,1.754c.179.292.37.58.567.857s.388.544.594.792c.1.124.207.243.31.356s.2.218.3.317a3.778,3.778,0,0,0,.589.49.93.93,0,0,0,1.036.141.661.661,0,0,0,.1-.076c-.025.48-.105.954-.16,1.43-.025.239-.08.473-.118.71s-.08.473-.131.708a4.116,4.116,0,0,0-.63-1.31,7.384,7.384,0,0,0-1.24-1.321,8.9,8.9,0,0,0-3.572-1.769c.069.16.149.323.235.487s.163.329.257.5.2.336.3.5.2.338.309.507.223.34.34.509.222.335.337.5c.23.329.482.653.709.951.95,1.2,1.9,2.074,2.623,1.642.021-.013.041-.026.06-.04-.149.515-.281,1.035-.465,1.539-.09.252-.164.511-.266.759l-.295.748a5.464,5.464,0,0,0-1.89-3.182,11.171,11.171,0,0,0-4.148-2.395c.15.348.355.719.549,1.094.1.189.212.382.327.578l.339.587c.117.2.239.4.365.6l.364.589c.244.39.512.779.754,1.135,1,1.439,2.021,2.519,2.865,2.067a24.991,24.991,0,0,1-1.842,3.211,3.806,3.806,0,0,0-.213-1.617,7.814,7.814,0,0,0-.979-1.885,10.627,10.627,0,0,0-1.591-1.777,11.963,11.963,0,0,0-1.98-1.423c.039.187.092.382.146.581s.1.4.167.605c.134.418.259.841.413,1.279s.3.873.468,1.311.33.861.5,1.265.355.79.536,1.13a5.508,5.508,0,0,0,.565.881c.394.485.824.733,1.282.6a23.612,23.612,0,0,1-2.461,2.765,5.463,5.463,0,0,0-.451-3.67,10.444,10.444,0,0,0-1.2-2.069,11.681,11.681,0,0,0-1.641-1.8q.009.286.018.6c.009.2.024.415.046.633.036.431.077.874.142,1.339s.114.916.19,1.38.142.9.231,1.339.181.839.29,1.21a5.556,5.556,0,0,0,.378.982c.288.556.658.886,1.13.846-.459.413-.951.789-1.439,1.167l-.755.537c-.252.179-.518.337-.776.506a3.591,3.591,0,0,0,.447-1.571,7.017,7.017,0,0,0,.01-1.011,8.989,8.989,0,0,0-.154-1.106,9.91,9.91,0,0,0-.3-1.133,11.28,11.28,0,0,0-.45-1.135,11.79,11.79,0,0,0-1.236-2.087c-.086.366-.137.786-.193,1.211-.028.212-.053.431-.073.657l-.029.342q-.017.168-.033.338c-.072.921-.133,1.866-.135,2.754-.024,1.74.2,3.235,1.139,3.339a24.2,24.2,0,0,1-3.358,1.558,3.755,3.755,0,0,0,.759-1.447,7.121,7.121,0,0,0,.213-.995q.038-.263.059-.538c.012-.187.018-.378.019-.57a10.339,10.339,0,0,0-.271-2.371,11.916,11.916,0,0,0-.789-2.3c-.077.175-.149.361-.219.556s-.145.385-.213.592-.136.416-.2.634-.136.426-.2.646l-.19.673c-.064.22-.126.443-.185.667-.118.449-.224.9-.321,1.323a8.892,8.892,0,0,0-.265,2.278c.039.62.248,1.077.7,1.232a25.357,25.357,0,0,1-3.608.828,3.826,3.826,0,0,0,1.042-1.255,7.865,7.865,0,0,0,.717-2,10.673,10.673,0,0,0,.222-2.377,11.908,11.908,0,0,0-.3-2.418c-.11.155-.216.332-.327.5s-.22.348-.329.535c-.215.384-.44.758-.657,1.171s-.437.811-.643,1.233-.407.828-.587,1.227-.339.793-.465,1.163a5.42,5.42,0,0,0-.263,1.011A1.243,1.243,0,0,0,157,71.57l-1.169.087-1,.026a.172.172,0,0,0,.009.343L155.848,72l1.186-.087a1.207,1.207,0,0,0-.2,1.4,3.988,3.988,0,0,0,.513.953,6.768,6.768,0,0,0,.892.991,8.2,8.2,0,0,0,1.245.954,9.878,9.878,0,0,0,1.549.809,10.4,10.4,0,0,0,1.778.569c.31.068.626.127.945.173a9.28,9.28,0,0,0,.959.078,12.4,12.4,0,0,0-1.487-2.024,21.682,21.682,0,0,0-1.788-1.806,17.221,17.221,0,0,0-1.743-1.424,5.381,5.381,0,0,0-1.483-.815,25.694,25.694,0,0,0,3.661-.841,1.213,1.213,0,0,0,.091,1.411,5.137,5.137,0,0,0,1.776,1.613,8.261,8.261,0,0,0,1.415.675q.391.147.816.272c.28.078.569.142.867.2s.6.1.916.141.622.045.94.051a9.364,9.364,0,0,0,.96-.024c.318-.028.637-.067.955-.119a12.327,12.327,0,0,0-1.873-1.679,23.307,23.307,0,0,0-2.121-1.4q-.263-.154-.521-.294c-.174-.1-.345-.191-.513-.279-.336-.176-.659-.332-.965-.462A5.519,5.519,0,0,0,163,70.541a24.554,24.554,0,0,0,3.407-1.58c-.391.864.6,1.928,2.452,2.583a9.776,9.776,0,0,0,3.263.486q.228,0,.461-.013c.152-.011.305-.025.46-.041.308-.033.621-.078.935-.135a11.236,11.236,0,0,0,1.844-.527,12.468,12.468,0,0,0-2.181-1.268c-.39-.182-.786-.35-1.179-.5s-.8-.305-1.181-.435-.764-.246-1.124-.344-.716-.194-1.044-.261a5.906,5.906,0,0,0-1.684-.148c.262-.172.532-.332.787-.513l.766-.545c.5-.384.994-.764,1.46-1.183a1.221,1.221,0,0,0,.652,1.259,3.908,3.908,0,0,0,.966.472,6.274,6.274,0,0,0,1.307.3,9.511,9.511,0,0,0,1.569.057,11.774,11.774,0,0,0,1.729-.238,11.914,11.914,0,0,0,1.775-.565c.29-.124.579-.261.864-.409q.214-.111.425-.23c.137-.082.271-.169.4-.257a12.709,12.709,0,0,0-2.388-.794,23.042,23.042,0,0,0-2.5-.438,10.68,10.68,0,0,0-3.927.044,23.966,23.966,0,0,0,2.5-2.805c-.016.471.313.848.891,1.1a3.97,3.97,0,0,0,1.046.269,6.514,6.514,0,0,0,1.335.019,8.28,8.28,0,0,0,1.545-.266,9.88,9.88,0,0,0,1.644-.586,10.279,10.279,0,0,0,1.624-.917c.261-.18.519-.372.771-.574s.479-.424.708-.651a12.272,12.272,0,0,0-2.495-.284,21.7,21.7,0,0,0-2.542.082,17.45,17.45,0,0,0-2.228.311,5.429,5.429,0,0,0-1.606.535,25.356,25.356,0,0,0,1.869-3.258c.09.469.478.765,1.1.894a5.168,5.168,0,0,0,2.389-.206,8.455,8.455,0,0,0,1.456-.58c.248-.125.5-.261.753-.413s.491-.321.736-.5.492-.371.725-.577.457-.426.678-.656a9.987,9.987,0,0,0,1.2-1.5,12.383,12.383,0,0,0-2.506.235,23.949,23.949,0,0,0-2.47.6,10.678,10.678,0,0,0-3.576,1.617l.3-.759c.1-.251.179-.513.27-.77.186-.511.32-1.039.471-1.561.009.022.019.043.03.064.38.73,1.688.575,3.114-.418a7.678,7.678,0,0,0,1.066-.892c.176-.173.352-.356.524-.551s.326-.4.483-.616.311-.439.459-.671.271-.472.4-.719.243-.5.352-.755.189-.517.269-.78a12.8,12.8,0,0,0-1.95.858,20.215,20.215,0,0,0-1.846,1.1,16.042,16.042,0,0,0-1.56,1.14,5.789,5.789,0,0,0-1.062,1.064c.051-.238.088-.479.133-.718s.094-.478.12-.72c.056-.483.137-.965.163-1.451a.711.711,0,0,0,.083.093.879.879,0,0,0,1.044.036,3.1,3.1,0,0,0,.661-.46c.114-.1.23-.214.346-.337s.221-.258.331-.4a8.649,8.649,0,0,0,.638-.981,8.88,8.88,0,0,0,.523-1.17,8.413,8.413,0,0,0,.507-2.634,15.4,15.4,0,0,0-2.445,2.323c-.36.415-.685.826-.962,1.214a6.855,6.855,0,0,0-.654,1.082c.026-.713.024-1.428-.018-2.14l-.171.009c.351-.019.6-.295.737-.752a4.254,4.254,0,0,0,.046-1.8,7.594,7.594,0,0,0-.719-2.2,6.757,6.757,0,0,0-1.394-1.9,16.519,16.519,0,0,0,.043,4.421" transform="translate(-154.659 -40.031)" fill="none"/>
    </clipPath>
    <linearGradient id="linear-gradient-2" x1="-0.569" y1="0.891" x2="-0.564" y2="0.891" xlink:href="#linear-gradient"/>
    <clipPath id="clip-path-3">
      <path id="Path_936" data-name="Path 936" d="M136.594,171.048h-2.11l1.707,1.24-.652,2.006,1.707-1.24,1.707,1.24-.652-2.006,1.707-1.24H137.9l-.652-2.006Z" transform="translate(-134.484 -169.042)" fill="none"/>
    </clipPath>
    <linearGradient id="linear-gradient-3" x1="-3.83" y1="1.415" x2="-3.8" y2="1.415" xlink:href="#linear-gradient"/>
    <clipPath id="clip-path-4">
      <path id="Path_937" data-name="Path 937" d="M108.1,0q-2.081,3.26-7.9,4.52v6.14a24.546,24.546,0,0,0,6-2V21.64h-6.74v6.08h21V21.64h-6.44V0Z" transform="translate(-99.458)" fill="none"/>
    </clipPath>
    <linearGradient id="linear-gradient-4" x1="-0.494" y1="1.446" x2="-0.487" y2="1.446" xlink:href="#linear-gradient"/>
  </defs>
  <g id="Group_159" data-name="Group 159" transform="translate(0 0)">
    <g id="Group_78" data-name="Group 78" transform="translate(0 8.817)">
      <g id="Group_77" data-name="Group 77" clip-path="url(#clip-path)">
        <rect id="Rectangle_592" data-name="Rectangle 592" width="46.239" height="48.404" transform="matrix(0.844, -0.537, 0.537, 0.844, -17.124, 10.897)" fill="url(#linear-gradient)"/>
      </g>
    </g>
    <g id="Group_80" data-name="Group 80" transform="translate(34.066 8.817)">
      <g id="Group_79" data-name="Group 79" clip-path="url(#clip-path-2)">
        <rect id="Rectangle_593" data-name="Rectangle 593" width="46.239" height="48.404" transform="translate(-17.124 10.897) rotate(-32.471)" fill="url(#linear-gradient-2)"/>
      </g>
    </g>
    <g id="Group_82" data-name="Group 82" transform="translate(29.622 37.234)">
      <g id="Group_81" data-name="Group 81" clip-path="url(#clip-path-3)">
        <rect id="Rectangle_594" data-name="Rectangle 594" width="7.48" height="7.397" transform="translate(-2.379 1.514) rotate(-32.471)" fill="url(#linear-gradient-3)"/>
      </g>
    </g>
    <g id="Group_84" data-name="Group 84" transform="translate(21.907 0)">
      <g id="Group_83" data-name="Group 83" clip-path="url(#clip-path-4)">
        <rect id="Rectangle_595" data-name="Rectangle 595" width="32.6" height="34.661" transform="matrix(0.844, -0.537, 0.537, 0.844, -12.556, 7.99)" fill="url(#linear-gradient-4)"/>
      </g>
    </g>
  </g>
</svg>
