<svg id="Group_161" data-name="Group 161" xmlns="http://www.w3.org/2000/svg" xmlns:xlink="http://www.w3.org/1999/xlink" width="63.603" height="46.164" viewBox="0 0 63.603 46.164">
  <defs>
    <clipPath id="clip-path">
      <rect id="Rectangle_601" data-name="Rectangle 601" width="63.602" height="46.164" fill="none"/>
    </clipPath>
    <clipPath id="clip-path-2">
      <path id="Path_950" data-name="Path 950" d="M6.745,38.75a7.457,7.457,0,0,0-.705,2.156,4.178,4.178,0,0,0,.045,1.762c.135.448.379.719.723.738L6.64,43.4c-.041.7-.044,1.4-.018,2.1a6.731,6.731,0,0,0-.642-1.062c-.272-.38-.591-.783-.943-1.191a15.1,15.1,0,0,0-2.4-2.28,8.253,8.253,0,0,0,.5,2.585A8.673,8.673,0,0,0,3.648,44.7a8.5,8.5,0,0,0,.626.962c.108.142.215.274.325.4s.228.231.34.331a3.028,3.028,0,0,0,.649.451A.862.862,0,0,0,6.612,46.8a.7.7,0,0,0,.081-.091c.025.477.1.95.16,1.424.025.238.079.471.118.707s.08.471.13.7A5.686,5.686,0,0,0,6.058,48.5a15.744,15.744,0,0,0-1.531-1.119A19.846,19.846,0,0,0,2.715,46.3,12.54,12.54,0,0,0,.8,45.46c.079.258.166.514.263.766s.223.5.345.741.25.478.389.706.3.447.451.658.313.413.474.6.342.371.515.541a7.53,7.53,0,0,0,1.046.875c1.4.974,2.683,1.126,3.056.41.011-.021.021-.042.03-.063.148.512.28,1.03.462,1.532.089.252.163.509.265.756l.293.745a10.479,10.479,0,0,0-3.509-1.587,23.525,23.525,0,0,0-2.424-.593A12.121,12.121,0,0,0,0,51.32,9.8,9.8,0,0,0,1.174,52.8q.325.338.665.643c.229.2.473.39.711.566s.481.34.722.491.5.283.739.405a8.263,8.263,0,0,0,1.429.569,5.068,5.068,0,0,0,2.345.2c.61-.126.991-.417,1.079-.877a24.932,24.932,0,0,0,1.834,3.2,5.331,5.331,0,0,0-1.576-.524,17.062,17.062,0,0,0-2.186-.306,21.317,21.317,0,0,0-2.494-.081,12.071,12.071,0,0,0-2.448.279c.224.223.453.438.694.639s.5.387.756.563a10.11,10.11,0,0,0,1.594.9,9.694,9.694,0,0,0,1.614.576,8.138,8.138,0,0,0,1.517.261,6.419,6.419,0,0,0,1.31-.019,3.894,3.894,0,0,0,1.026-.264c.568-.245.89-.615.875-1.077a23.5,23.5,0,0,0,2.45,2.752,10.5,10.5,0,0,0-3.854-.043,22.648,22.648,0,0,0-2.454.43,12.448,12.448,0,0,0-2.343.779c.131.087.263.172.4.252s.277.154.417.226c.28.145.563.279.848.4a11.709,11.709,0,0,0,1.741.554,11.549,11.549,0,0,0,1.7.233,9.392,9.392,0,0,0,1.54-.056,6.183,6.183,0,0,0,1.283-.29,3.851,3.851,0,0,0,.948-.464,1.2,1.2,0,0,0,.64-1.236c.458.411.947.785,1.432,1.161l.751.534c.251.178.516.335.773.5a5.806,5.806,0,0,0-1.652.145c-.322.066-.665.153-1.025.256s-.723.21-1.1.338-.77.273-1.159.427-.775.316-1.157.494a12.205,12.205,0,0,0-2.14,1.245,11.006,11.006,0,0,0,1.81.517q.462.084.917.133.227.025.451.041t.452.013a9.6,9.6,0,0,0,3.2-.477c1.823-.644,2.79-1.687,2.407-2.535a24.091,24.091,0,0,0,3.343,1.551A5.412,5.412,0,0,0,20.4,67.3c-.3.128-.617.28-.947.453-.165.086-.333.178-.5.274s-.339.188-.511.288A22.88,22.88,0,0,0,16.361,69.7a12.1,12.1,0,0,0-1.838,1.647c.312.051.625.09.937.117a9.268,9.268,0,0,0,.942.024c.312-.006.621-.022.923-.05s.607-.083.9-.138.575-.119.851-.2.545-.171.8-.267a8.094,8.094,0,0,0,1.388-.662A5.042,5.042,0,0,0,23,68.588a1.19,1.19,0,0,0,.089-1.385,25.226,25.226,0,0,0,3.592.825,5.294,5.294,0,0,0-1.455.8,16.913,16.913,0,0,0-1.711,1.4A21.272,21.272,0,0,0,21.766,72a12.186,12.186,0,0,0-1.46,1.986,9.151,9.151,0,0,0,.941-.076c.314-.046.624-.1.928-.17a10.2,10.2,0,0,0,1.744-.558,9.7,9.7,0,0,0,1.52-.794,8.069,8.069,0,0,0,1.222-.936,6.641,6.641,0,0,0,.876-.972,3.91,3.91,0,0,0,.5-.935,1.185,1.185,0,0,0-.2-1.372l1.164.086.994.025a.169.169,0,0,0,.008-.337l-.986-.025-1.147-.085a1.218,1.218,0,0,0,.421-1.325,5.337,5.337,0,0,0-.258-.993c-.124-.363-.28-.748-.456-1.141s-.374-.789-.577-1.2-.42-.8-.631-1.211-.433-.772-.644-1.149c-.107-.184-.214-.36-.323-.525s-.212-.339-.321-.491a11.685,11.685,0,0,0-.3,2.373,10.479,10.479,0,0,0,.217,2.333,7.723,7.723,0,0,0,.7,1.96,3.749,3.749,0,0,0,1.022,1.232,24.922,24.922,0,0,1-3.54-.813c.44-.152.646-.6.684-1.209a8.71,8.71,0,0,0-.26-2.235c-.094-.413-.2-.858-.315-1.3-.058-.22-.119-.439-.182-.654s-.124-.443-.186-.661-.13-.429-.2-.634-.13-.423-.2-.623-.142-.386-.209-.581-.14-.374-.215-.545a11.7,11.7,0,0,0-.775,2.259,10.137,10.137,0,0,0-.266,2.326c0,.189.007.376.018.56s.033.355.058.527a7.046,7.046,0,0,0,.209.976,3.688,3.688,0,0,0,.745,1.42,23.76,23.76,0,0,1-3.295-1.529c.923-.1,1.141-1.569,1.118-3.276,0-.871-.062-1.8-.133-2.7l-.032-.332q-.014-.17-.029-.336c-.02-.221-.044-.436-.072-.644-.055-.417-.1-.83-.189-1.189a11.569,11.569,0,0,0-1.213,2.048,11.082,11.082,0,0,0-.441,1.113,9.625,9.625,0,0,0-.294,1.111,8.8,8.8,0,0,0-.151,1.085,6.946,6.946,0,0,0,.01.992,3.521,3.521,0,0,0,.439,1.541c-.254-.166-.514-.321-.762-.5l-.741-.527c-.479-.371-.961-.739-1.412-1.145.463.039.826-.284,1.109-.83a5.439,5.439,0,0,0,.371-.964c.108-.364.195-.759.285-1.188s.16-.867.227-1.314.137-.91.186-1.354.1-.891.14-1.314c.02-.214.036-.421.045-.621s.012-.4.017-.585a11.511,11.511,0,0,0-1.61,1.762,10.244,10.244,0,0,0-1.173,2.03,5.36,5.36,0,0,0-.443,3.6,23.2,23.2,0,0,1-2.415-2.714c.45.13.872-.114,1.258-.589a5.391,5.391,0,0,0,.555-.865c.177-.333.359-.713.526-1.109s.325-.81.492-1.241.3-.853.46-1.287.274-.844.4-1.255q.093-.305.164-.593c.053-.195.1-.387.143-.57a11.774,11.774,0,0,0-1.943,1.4,10.432,10.432,0,0,0-1.561,1.744,7.676,7.676,0,0,0-.961,1.849,3.736,3.736,0,0,0-.21,1.587,24.563,24.563,0,0,1-1.807-3.151c.829.443,1.829-.617,2.812-2.029.237-.349.5-.732.74-1.114l.357-.578q.185-.294.358-.585l.333-.576q.171-.289.321-.567c.191-.369.391-.732.539-1.074a10.965,10.965,0,0,0-4.071,2.35A5.361,5.361,0,0,0,8.7,53.6l-.289-.734c-.1-.243-.173-.5-.261-.744-.18-.495-.309-1.005-.456-1.51.019.014.038.027.059.039.713.425,1.642-.436,2.574-1.611.222-.292.47-.61.7-.933q.171-.243.331-.49c.115-.166.227-.333.334-.5s.208-.333.3-.5.2-.332.294-.5.176-.326.252-.486.163-.321.231-.478A8.728,8.728,0,0,0,9.266,46.9a7.267,7.267,0,0,0-1.217,1.3,4.037,4.037,0,0,0-.618,1.285c-.05-.23-.085-.463-.128-.694s-.091-.462-.116-.7c-.054-.468-.133-.933-.158-1.4a.612.612,0,0,0,.094.075.912.912,0,0,0,1.016-.138,3.7,3.7,0,0,0,.578-.481c.1-.1.195-.2.291-.311s.2-.227.3-.349c.2-.243.4-.505.583-.777s.381-.555.556-.841a10.513,10.513,0,0,0,.88-1.721,6.9,6.9,0,0,0-2.745,1.31,6.165,6.165,0,0,0-1.019,1,4.025,4.025,0,0,0-.608,1.032c-.025-.69-.023-1.381.018-2.07l-.168-.009c.688.029,1.066-.922,1.262-2.182a16.2,16.2,0,0,0,.043-4.338A6.628,6.628,0,0,0,6.745,38.75" transform="translate(0 -36.886)" fill="none"/>
    </clipPath>
    <linearGradient id="linear-gradient" x1="0.168" y1="0.889" x2="0.173" y2="0.889" gradientUnits="objectBoundingBox">
      <stop offset="0" stop-color="#e0c5a3"/>
      <stop offset="0.058" stop-color="#dabc99"/>
      <stop offset="0.154" stop-color="#cda47f"/>
      <stop offset="0.249" stop-color="#bd8860"/>
      <stop offset="0.408" stop-color="#9b7a5d"/>
      <stop offset="0.842" stop-color="#f8d7b7"/>
      <stop offset="1" stop-color="#bf8244"/>
    </linearGradient>
    <clipPath id="clip-path-3">
      <path id="Path_951" data-name="Path 951" d="M158.132,41.224c.2,1.26.574,2.211,1.261,2.182l-.168.009c.04.69.043,1.38.018,2.07a4.032,4.032,0,0,0-.608-1.033,6.182,6.182,0,0,0-1.019-1,6.9,6.9,0,0,0-2.744-1.31,10.527,10.527,0,0,0,.88,1.721c.176.286.363.569.556.841s.381.534.583.777c.1.121.2.238.3.349s.194.215.291.311a3.706,3.706,0,0,0,.578.481.913.913,0,0,0,1.017.138.626.626,0,0,0,.094-.075c-.024.471-.1.936-.158,1.4-.025.234-.078.464-.116.7s-.079.464-.128.694a4.039,4.039,0,0,0-.618-1.285,7.26,7.26,0,0,0-1.217-1.3,8.729,8.729,0,0,0-3.505-1.736c.068.157.146.316.231.478s.16.322.252.486.193.33.294.5.2.331.3.5.218.333.334.5.217.328.331.49c.225.323.473.641.7.933.932,1.175,1.861,2.035,2.574,1.611.02-.012.04-.025.058-.039-.146.505-.276,1.015-.456,1.51-.088.248-.16.5-.261.744l-.289.734a5.36,5.36,0,0,0-1.854-3.122,10.966,10.966,0,0,0-4.071-2.35c.147.342.348.705.539,1.074q.15.278.321.567l.333.576q.172.291.358.585l.357.578c.24.382.5.765.74,1.114.982,1.412,1.983,2.471,2.812,2.029a24.589,24.589,0,0,1-1.807,3.151,3.736,3.736,0,0,0-.21-1.587,7.68,7.68,0,0,0-.961-1.849,10.448,10.448,0,0,0-1.561-1.744,11.765,11.765,0,0,0-1.943-1.4c.039.183.09.375.144.57s.1.39.164.593c.131.411.255.825.4,1.255s.294.857.46,1.287.324.845.492,1.241.348.775.526,1.109a5.4,5.4,0,0,0,.555.865c.386.476.808.719,1.258.589a23.178,23.178,0,0,1-2.415,2.713,5.359,5.359,0,0,0-.443-3.6,10.245,10.245,0,0,0-1.174-2.03,11.493,11.493,0,0,0-1.61-1.762q.008.28.018.585t.045.621c.035.423.076.858.139,1.314s.112.9.186,1.354.139.888.227,1.314.177.823.285,1.188a5.433,5.433,0,0,0,.37.964c.283.546.646.869,1.109.83-.451.406-.933.774-1.412,1.145l-.741.527c-.247.175-.508.331-.761.5a3.521,3.521,0,0,0,.439-1.541,6.907,6.907,0,0,0,.01-.992,8.793,8.793,0,0,0-.151-1.085,9.67,9.67,0,0,0-.294-1.111,11.085,11.085,0,0,0-.441-1.113,11.6,11.6,0,0,0-1.213-2.048c-.085.359-.134.772-.189,1.189-.028.208-.051.423-.072.644l-.028.336L146.4,59c-.071.9-.131,1.831-.133,2.7-.023,1.707.2,3.175,1.118,3.276a23.721,23.721,0,0,1-3.3,1.529,3.679,3.679,0,0,0,.745-1.42,7,7,0,0,0,.209-.976c.024-.172.044-.348.058-.527s.018-.371.018-.56a10.119,10.119,0,0,0-.266-2.326,11.68,11.68,0,0,0-.775-2.259c-.075.171-.146.354-.215.545s-.142.378-.209.581-.133.408-.2.623-.134.417-.2.634l-.186.661c-.063.216-.124.434-.182.654-.116.44-.22.886-.315,1.3a8.732,8.732,0,0,0-.26,2.235c.038.608.244,1.057.684,1.209a24.907,24.907,0,0,1-3.54.813,3.752,3.752,0,0,0,1.022-1.232,7.722,7.722,0,0,0,.7-1.96,10.465,10.465,0,0,0,.217-2.333,11.663,11.663,0,0,0-.3-2.373c-.108.152-.212.326-.32.491s-.216.341-.323.525c-.211.377-.432.744-.644,1.149s-.428.8-.631,1.211-.4.812-.577,1.2-.333.778-.456,1.141a5.318,5.318,0,0,0-.259.993,1.219,1.219,0,0,0,.421,1.325l-1.147.085-.986.025a.169.169,0,0,0,.009.337l.994-.025,1.164-.086a1.185,1.185,0,0,0-.2,1.372,3.929,3.929,0,0,0,.5.935,6.645,6.645,0,0,0,.876.972,8.074,8.074,0,0,0,1.222.936,9.693,9.693,0,0,0,1.52.794,10.206,10.206,0,0,0,1.745.558c.3.067.614.124.927.17a9.16,9.16,0,0,0,.942.076A12.176,12.176,0,0,0,144.436,72a21.2,21.2,0,0,0-1.754-1.773,16.86,16.86,0,0,0-1.711-1.4,5.294,5.294,0,0,0-1.455-.8,25.223,25.223,0,0,0,3.592-.825,1.19,1.19,0,0,0,.089,1.385,5.039,5.039,0,0,0,1.743,1.582,8.093,8.093,0,0,0,1.389.662q.383.145.8.267c.275.077.558.139.85.2s.593.1.9.138.61.044.923.05a9.266,9.266,0,0,0,.942-.024c.312-.027.625-.066.937-.117a12.089,12.089,0,0,0-1.838-1.647,22.95,22.95,0,0,0-2.081-1.376q-.258-.15-.511-.288c-.17-.1-.338-.188-.5-.274-.33-.173-.647-.326-.947-.453a5.413,5.413,0,0,0-1.587-.479,24.1,24.1,0,0,0,3.343-1.551c-.384.848.584,1.892,2.407,2.535a9.6,9.6,0,0,0,3.2.477c.149,0,.3-.006.452-.013s.3-.024.451-.041c.3-.033.609-.077.917-.133a11.015,11.015,0,0,0,1.81-.517,12.223,12.223,0,0,0-2.14-1.245c-.382-.178-.771-.343-1.157-.494s-.78-.3-1.16-.427-.75-.242-1.1-.338-.7-.19-1.024-.256a5.807,5.807,0,0,0-1.652-.145c.257-.169.521-.326.772-.5l.752-.534c.486-.376.975-.75,1.432-1.161a1.2,1.2,0,0,0,.64,1.236,3.846,3.846,0,0,0,.948.464,6.181,6.181,0,0,0,1.283.29,9.391,9.391,0,0,0,1.54.056,11.543,11.543,0,0,0,1.7-.233,11.7,11.7,0,0,0,1.742-.554c.284-.122.568-.256.848-.4q.209-.109.416-.226c.135-.08.266-.165.4-.252a12.448,12.448,0,0,0-2.343-.779,22.654,22.654,0,0,0-2.454-.43,10.5,10.5,0,0,0-3.853.043,23.522,23.522,0,0,0,2.45-2.752c-.015.462.307.832.875,1.077a3.9,3.9,0,0,0,1.027.264,6.42,6.42,0,0,0,1.31.019,8.137,8.137,0,0,0,1.516-.261,9.7,9.7,0,0,0,1.614-.576,10.12,10.12,0,0,0,1.594-.9q.384-.265.756-.563c.241-.2.47-.416.694-.639a12.075,12.075,0,0,0-2.448-.279,21.315,21.315,0,0,0-2.494.081,17.065,17.065,0,0,0-2.186.306,5.328,5.328,0,0,0-1.576.524,24.914,24.914,0,0,0,1.834-3.2c.088.46.469.751,1.079.877a5.069,5.069,0,0,0,2.345-.2,8.271,8.271,0,0,0,1.429-.569c.244-.122.5-.256.739-.405s.482-.315.722-.491.483-.364.711-.566.448-.418.665-.643A9.8,9.8,0,0,0,166.2,51.32a12.123,12.123,0,0,0-2.459.23,23.5,23.5,0,0,0-2.424.593,10.48,10.48,0,0,0-3.509,1.587l.294-.745c.1-.247.176-.5.265-.756.182-.5.314-1.02.462-1.532.009.021.019.042.03.063.373.717,1.656.564,3.056-.41a7.513,7.513,0,0,0,1.046-.875c.173-.17.345-.35.515-.541s.319-.394.474-.6.305-.431.45-.658.266-.464.39-.706.238-.489.345-.741.185-.508.263-.766a12.571,12.571,0,0,0-1.913.842,19.818,19.818,0,0,0-1.812,1.083,15.743,15.743,0,0,0-1.531,1.119,5.683,5.683,0,0,0-1.042,1.044c.05-.233.086-.47.13-.7s.093-.469.117-.707c.055-.475.135-.947.16-1.424a.7.7,0,0,0,.081.091.862.862,0,0,0,1.025.035,3.033,3.033,0,0,0,.649-.451c.112-.1.226-.209.34-.331s.217-.253.325-.4a8.493,8.493,0,0,0,.626-.962,8.752,8.752,0,0,0,.513-1.148,8.247,8.247,0,0,0,.5-2.585,15.1,15.1,0,0,0-2.4,2.28c-.353.408-.672.81-.944,1.191a6.728,6.728,0,0,0-.642,1.062c.026-.7.023-1.4-.018-2.1l-.168.009c.344-.018.588-.289.724-.738a4.177,4.177,0,0,0,.045-1.762,7.449,7.449,0,0,0-.706-2.156,6.632,6.632,0,0,0-1.368-1.864,16.2,16.2,0,0,0,.043,4.338" transform="translate(-136.029 -36.886)" fill="none"/>
    </clipPath>
    <linearGradient id="linear-gradient-2" x1="-0.569" y1="0.892" x2="-0.564" y2="0.892" xlink:href="#linear-gradient"/>
    <clipPath id="clip-path-4">
      <path id="Path_952" data-name="Path 952" d="M120.355,152.326h-2.07l1.675,1.217-.64,1.969,1.675-1.217,1.675,1.217-.64-1.969,1.675-1.217h-2.07l-.64-1.969Z" transform="translate(-118.285 -150.357)" fill="none"/>
    </clipPath>
    <linearGradient id="linear-gradient-3" x1="-3.83" y1="1.409" x2="-3.796" y2="1.409" xlink:href="#linear-gradient"/>
    <clipPath id="clip-path-5">
      <path id="Path_953" data-name="Path 953" d="M96.065,0A11.323,11.323,0,0,0,89.3,2.041a9.52,9.52,0,0,0-3.739,5.809l6.477,1.02Q92.649,5.81,95.4,5.809a2.963,2.963,0,0,1,2.061.707,2.278,2.278,0,0,1,.785,1.766,2.579,2.579,0,0,1-.628,1.629q-.628.785-2.826.785H92.041V16.29H95.3a5.1,5.1,0,0,1,1.963.265,2.942,2.942,0,0,1,1.07.923,2.442,2.442,0,0,1,.5,1.521,2.54,2.54,0,0,1-.923,2.061,3.626,3.626,0,0,1-2.394.765q-3.238,0-3.925-3.67l-6.987.864q2.1,8.6,11.481,8.6a12.638,12.638,0,0,0,7.605-2.129,6.959,6.959,0,0,0,2.934-5.976q0-4.828-4.828-6.3a5.478,5.478,0,0,0,2.875-2.061A5.889,5.889,0,0,0,105.8,7.556a6.594,6.594,0,0,0-2.669-5.5A11.254,11.254,0,0,0,96.065,0Z" transform="translate(-84.603)" fill="none"/>
    </clipPath>
    <linearGradient id="linear-gradient-4" x1="-0.452" y1="1.422" x2="-0.445" y2="1.422" xlink:href="#linear-gradient"/>
  </defs>
  <g id="Group_98" data-name="Group 98">
    <g id="Group_97" data-name="Group 97" clip-path="url(#clip-path)">
      <path id="Path_946" data-name="Path 946" d="M30.174,68.114a.169.169,0,0,0-.164-.169l-.986-.025-1.147-.085A1.219,1.219,0,0,0,28.3,66.51a5.361,5.361,0,0,0-.259-.993c-.123-.363-.28-.749-.456-1.141s-.374-.789-.576-1.2-.42-.8-.631-1.21-.433-.772-.644-1.149q-.16-.276-.323-.525c-.109-.165-.212-.339-.321-.491a11.7,11.7,0,0,0-.3,2.373A10.464,10.464,0,0,0,25.01,64.5a7.716,7.716,0,0,0,.7,1.96,3.758,3.758,0,0,0,1.022,1.232,24.913,24.913,0,0,1-3.54-.813c.44-.152.645-.6.684-1.209a8.722,8.722,0,0,0-.26-2.235c-.094-.413-.2-.858-.315-1.3-.058-.22-.119-.439-.182-.654l-.186-.66c-.064-.217-.13-.429-.2-.634s-.13-.423-.2-.623-.142-.386-.209-.581-.14-.374-.215-.546a11.684,11.684,0,0,0-.775,2.259,10.155,10.155,0,0,0-.266,2.326c0,.189.007.376.019.559s.033.356.058.528a6.979,6.979,0,0,0,.209.976,3.685,3.685,0,0,0,.745,1.42,23.777,23.777,0,0,1-3.3-1.529c.923-.1,1.141-1.569,1.118-3.276,0-.871-.062-1.8-.133-2.7l-.032-.332q-.014-.169-.028-.336c-.021-.221-.044-.436-.072-.644-.055-.417-.1-.83-.189-1.189a11.575,11.575,0,0,0-1.213,2.048,11.1,11.1,0,0,0-.441,1.113,9.738,9.738,0,0,0-.294,1.111,8.841,8.841,0,0,0-.151,1.085,6.947,6.947,0,0,0,.01.992,3.521,3.521,0,0,0,.439,1.541c-.253-.166-.514-.321-.762-.5l-.741-.527c-.479-.371-.961-.739-1.412-1.145.463.039.826-.284,1.109-.83a5.474,5.474,0,0,0,.371-.964c.107-.364.195-.759.285-1.188s.16-.867.227-1.314.136-.911.186-1.354.1-.892.14-1.314q.031-.321.045-.621l.018-.585a11.486,11.486,0,0,0-1.61,1.762,10.251,10.251,0,0,0-1.174,2.03,5.36,5.36,0,0,0-.443,3.6,23.2,23.2,0,0,1-2.415-2.713c.449.129.872-.114,1.258-.59a5.377,5.377,0,0,0,.555-.865c.177-.333.359-.713.526-1.109s.325-.81.492-1.241.3-.853.459-1.287.274-.844.4-1.255c.062-.2.117-.4.164-.593s.1-.387.143-.57a11.741,11.741,0,0,0-1.943,1.4,10.436,10.436,0,0,0-1.561,1.744,7.666,7.666,0,0,0-.961,1.849,3.74,3.74,0,0,0-.21,1.587,24.563,24.563,0,0,1-1.807-3.151c.829.443,1.829-.617,2.812-2.029.237-.349.5-.732.739-1.114l.357-.578c.123-.2.243-.391.358-.585l.332-.576q.17-.288.321-.567c.191-.369.391-.732.539-1.074a10.96,10.96,0,0,0-4.071,2.35A5.359,5.359,0,0,0,8.7,53.6l-.289-.734c-.1-.243-.173-.5-.261-.745-.18-.495-.309-1.005-.456-1.51.019.014.038.027.059.039.713.425,1.642-.436,2.574-1.611.222-.292.47-.61.7-.933q.171-.243.331-.49c.115-.166.227-.333.334-.5s.208-.333.3-.5.2-.332.294-.5.176-.326.252-.486.163-.321.231-.478A8.728,8.728,0,0,0,9.266,46.9a7.248,7.248,0,0,0-1.217,1.3,4.041,4.041,0,0,0-.618,1.285c-.05-.23-.085-.463-.128-.694s-.091-.462-.116-.7c-.054-.468-.133-.933-.158-1.4a.625.625,0,0,0,.094.075.913.913,0,0,0,1.017-.138,3.706,3.706,0,0,0,.578-.481c.1-.1.195-.2.291-.311s.2-.227.3-.349c.2-.243.4-.505.583-.777s.381-.555.556-.841a10.533,10.533,0,0,0,.88-1.721,6.9,6.9,0,0,0-2.745,1.31,6.154,6.154,0,0,0-1.019,1,4.022,4.022,0,0,0-.608,1.033c-.025-.69-.023-1.381.018-2.071l-.168-.009c.688.029,1.066-.922,1.261-2.182a16.2,16.2,0,0,0,.043-4.338A6.632,6.632,0,0,0,6.746,38.75a7.451,7.451,0,0,0-.706,2.156,4.178,4.178,0,0,0,.045,1.762c.135.448.38.719.723.738L6.64,43.4c-.041.7-.043,1.4-.018,2.1a6.712,6.712,0,0,0-.642-1.062c-.272-.38-.591-.783-.943-1.191a15.113,15.113,0,0,0-2.4-2.28,8.253,8.253,0,0,0,.5,2.585A8.659,8.659,0,0,0,3.648,44.7a8.5,8.5,0,0,0,.626.962c.108.142.215.274.325.4s.228.231.34.331a3.021,3.021,0,0,0,.649.451A.862.862,0,0,0,6.612,46.8a.7.7,0,0,0,.081-.091c.025.477.1.95.16,1.424.025.238.079.471.117.707s.08.471.13.7A5.686,5.686,0,0,0,6.058,48.5a15.739,15.739,0,0,0-1.531-1.119A19.817,19.817,0,0,0,2.715,46.3,12.572,12.572,0,0,0,.8,45.46c.078.258.166.514.263.766s.223.5.345.741.25.478.389.706.3.447.45.658.313.413.474.6.342.371.515.54a7.5,7.5,0,0,0,1.046.875c1.4.974,2.683,1.127,3.056.41.011-.021.021-.042.029-.063.149.513.28,1.03.463,1.532.089.251.163.508.265.755l.293.745a10.484,10.484,0,0,0-3.509-1.587,23.463,23.463,0,0,0-2.424-.593A12.121,12.121,0,0,0,0,51.32,9.819,9.819,0,0,0,1.174,52.8q.325.338.665.643c.229.2.473.39.711.566s.482.34.722.491.5.283.739.405a8.289,8.289,0,0,0,1.429.568,5.069,5.069,0,0,0,2.345.2c.61-.126.991-.417,1.079-.877a24.884,24.884,0,0,0,1.834,3.2,5.331,5.331,0,0,0-1.576-.524,17.16,17.16,0,0,0-2.186-.305,21.373,21.373,0,0,0-2.494-.081,12.037,12.037,0,0,0-2.448.279c.224.222.453.437.694.639s.5.387.756.563a10.092,10.092,0,0,0,1.594.9,9.67,9.67,0,0,0,1.614.575,8.139,8.139,0,0,0,1.517.261,6.439,6.439,0,0,0,1.31-.019,3.908,3.908,0,0,0,1.027-.264c.567-.245.89-.615.875-1.077a23.526,23.526,0,0,0,2.45,2.752,10.5,10.5,0,0,0-3.853-.043,22.642,22.642,0,0,0-2.455.43,12.49,12.49,0,0,0-2.343.779c.131.087.263.171.4.252s.277.154.417.226c.28.145.563.279.848.4a11.711,11.711,0,0,0,1.741.554,11.582,11.582,0,0,0,1.7.233,9.365,9.365,0,0,0,1.54-.056,6.176,6.176,0,0,0,1.283-.29,3.847,3.847,0,0,0,.948-.464,1.2,1.2,0,0,0,.64-1.236c.458.411.947.785,1.432,1.161l.752.534c.251.178.515.335.772.5a5.8,5.8,0,0,0-1.652.145c-.321.066-.665.153-1.025.257s-.723.209-1.1.338-.77.273-1.159.428-.775.315-1.157.494a12.23,12.23,0,0,0-2.14,1.245,11.042,11.042,0,0,0,1.81.518c.308.056.614.1.917.133q.227.025.451.041t.452.013a9.6,9.6,0,0,0,3.2-.477c1.823-.644,2.791-1.687,2.407-2.535a24.091,24.091,0,0,0,3.343,1.551A5.419,5.419,0,0,0,20.4,67.3c-.3.128-.617.281-.947.453q-.247.129-.5.274t-.511.288A22.962,22.962,0,0,0,16.361,69.7a12.116,12.116,0,0,0-1.838,1.647c.312.051.625.09.937.117a9.061,9.061,0,0,0,.942.024c.312-.005.62-.022.923-.05s.607-.083.9-.138.575-.119.851-.2.545-.171.8-.267a8.113,8.113,0,0,0,1.388-.662A5.044,5.044,0,0,0,23,68.588a1.19,1.19,0,0,0,.089-1.385,25.255,25.255,0,0,0,3.592.825,5.288,5.288,0,0,0-1.455.8,16.885,16.885,0,0,0-1.71,1.4A21.237,21.237,0,0,0,21.766,72a12.161,12.161,0,0,0-1.46,1.986,9.151,9.151,0,0,0,.941-.076c.314-.046.624-.1.928-.17a10.2,10.2,0,0,0,1.744-.558,9.665,9.665,0,0,0,1.52-.794,8.024,8.024,0,0,0,1.222-.936,6.658,6.658,0,0,0,.876-.972,3.916,3.916,0,0,0,.5-.935,1.185,1.185,0,0,0-.2-1.372l1.164.086.994.025a.169.169,0,0,0,.173-.169" transform="translate(0 -27.821)"/>
      <path id="Path_947" data-name="Path 947" d="M163.744,51.551a23.465,23.465,0,0,0-2.424.593,10.476,10.476,0,0,0-3.509,1.587l.294-.745c.1-.247.176-.5.265-.755.182-.5.314-1.02.463-1.532.009.021.018.042.03.063.373.717,1.656.564,3.056-.41a7.532,7.532,0,0,0,1.046-.875c.173-.17.345-.35.515-.54s.319-.394.474-.6.305-.431.45-.658.266-.464.389-.705.238-.489.345-.741.185-.508.263-.766a12.583,12.583,0,0,0-1.913.841,19.855,19.855,0,0,0-1.811,1.083,15.693,15.693,0,0,0-1.531,1.119,5.667,5.667,0,0,0-1.042,1.044c.05-.234.086-.47.13-.7s.093-.469.117-.707c.055-.475.135-.947.16-1.424a.657.657,0,0,0,.081.091.862.862,0,0,0,1.024.035,3.038,3.038,0,0,0,.649-.451q.168-.149.34-.331c.11-.121.217-.253.325-.4a8.492,8.492,0,0,0,.626-.962,8.752,8.752,0,0,0,.513-1.148,8.257,8.257,0,0,0,.5-2.585,15.11,15.11,0,0,0-2.4,2.28c-.353.408-.672.811-.944,1.191a6.744,6.744,0,0,0-.642,1.062c.026-.7.023-1.4-.018-2.1l-.168.009c.344-.018.588-.289.723-.738a4.178,4.178,0,0,0,.045-1.762,7.45,7.45,0,0,0-.706-2.156,6.627,6.627,0,0,0-1.368-1.864,16.194,16.194,0,0,0,.043,4.338c.2,1.26.574,2.21,1.261,2.182l-.168.009c.041.689.043,1.38.018,2.07a4.016,4.016,0,0,0-.609-1.033,6.16,6.16,0,0,0-1.019-1,6.9,6.9,0,0,0-2.744-1.31,10.529,10.529,0,0,0,.88,1.721c.175.286.363.569.556.841s.381.534.583.777c.1.121.2.238.3.349s.194.215.291.311a3.709,3.709,0,0,0,.578.481.914.914,0,0,0,1.017.138.644.644,0,0,0,.094-.075c-.024.471-.1.936-.158,1.4-.025.234-.078.464-.116.7s-.079.464-.128.695a4.043,4.043,0,0,0-.618-1.285,7.268,7.268,0,0,0-1.217-1.3,8.733,8.733,0,0,0-3.505-1.736c.068.157.146.316.231.478s.16.323.252.486.193.33.294.5.2.332.3.5.218.333.334.5.217.328.331.49c.225.323.473.641.7.933.932,1.175,1.862,2.035,2.574,1.611.02-.012.04-.025.059-.039-.147.505-.276,1.015-.456,1.51-.088.248-.16.5-.261.744l-.289.734a5.36,5.36,0,0,0-1.854-3.122,10.96,10.96,0,0,0-4.071-2.35c.147.342.348.705.539,1.074q.15.278.321.567l.333.576c.115.194.235.389.358.585l.357.578c.24.382.5.765.739,1.114.982,1.412,1.983,2.471,2.812,2.029a24.586,24.586,0,0,1-1.807,3.151,3.739,3.739,0,0,0-.21-1.587,7.674,7.674,0,0,0-.961-1.849,10.459,10.459,0,0,0-1.561-1.744,11.772,11.772,0,0,0-1.943-1.4c.039.183.09.375.143.57s.1.39.164.594c.131.411.255.825.4,1.255s.294.857.459,1.286.324.845.492,1.242.349.775.526,1.108a5.374,5.374,0,0,0,.555.865c.386.476.808.719,1.258.59a23.2,23.2,0,0,1-2.415,2.713,5.36,5.36,0,0,0-.443-3.6,10.244,10.244,0,0,0-1.174-2.03,11.483,11.483,0,0,0-1.61-1.762q.008.28.018.585c.009.2.024.407.045.621.035.423.076.858.14,1.314s.112.9.186,1.354.139.888.227,1.314.177.824.285,1.188a5.471,5.471,0,0,0,.371.964c.282.546.646.869,1.109.83-.451.405-.933.774-1.412,1.145l-.741.527c-.247.175-.508.33-.762.5a3.52,3.52,0,0,0,.439-1.541,6.944,6.944,0,0,0,.01-.992,8.84,8.84,0,0,0-.151-1.086,9.731,9.731,0,0,0-.294-1.112,11.107,11.107,0,0,0-.441-1.113,11.6,11.6,0,0,0-1.213-2.048c-.085.359-.134.772-.189,1.189-.028.208-.051.423-.072.645l-.028.336L146.4,59c-.071.9-.131,1.831-.133,2.7-.023,1.707.2,3.175,1.118,3.276a23.75,23.75,0,0,1-3.3,1.529,3.682,3.682,0,0,0,.745-1.42,6.98,6.98,0,0,0,.209-.976c.025-.172.044-.348.058-.528s.018-.371.019-.56a10.166,10.166,0,0,0-.266-2.326,11.679,11.679,0,0,0-.775-2.259c-.075.171-.146.354-.215.545s-.142.378-.209.581-.134.409-.2.623-.134.418-.2.634l-.186.661c-.063.216-.124.434-.182.654-.116.44-.22.886-.315,1.3a8.723,8.723,0,0,0-.26,2.235c.038.608.243,1.057.684,1.209a24.881,24.881,0,0,1-3.54.813,3.757,3.757,0,0,0,1.022-1.232,7.725,7.725,0,0,0,.7-1.96,10.466,10.466,0,0,0,.217-2.333,11.686,11.686,0,0,0-.3-2.373c-.108.152-.212.326-.32.491s-.216.341-.323.525c-.211.377-.432.744-.644,1.149s-.429.8-.631,1.21-.4.813-.577,1.2-.333.778-.456,1.141a5.333,5.333,0,0,0-.259.993,1.218,1.218,0,0,0,.421,1.325l-1.147.085-.986.025a.169.169,0,1,0,.008.337l.994-.025,1.164-.086a1.185,1.185,0,0,0-.2,1.372,3.929,3.929,0,0,0,.5.935,6.646,6.646,0,0,0,.876.972,8.042,8.042,0,0,0,1.222.936,9.692,9.692,0,0,0,1.52.794,10.205,10.205,0,0,0,1.745.558c.3.068.614.124.928.17a9.222,9.222,0,0,0,.942.076A12.165,12.165,0,0,0,144.436,72a21.236,21.236,0,0,0-1.754-1.773,16.861,16.861,0,0,0-1.711-1.4,5.286,5.286,0,0,0-1.455-.8,25.26,25.26,0,0,0,3.592-.825,1.19,1.19,0,0,0,.089,1.385,5.039,5.039,0,0,0,1.743,1.582,8.094,8.094,0,0,0,1.389.662c.255.1.523.186.8.267s.558.14.851.2.592.1.9.138.61.044.923.05a9.128,9.128,0,0,0,.942-.024c.312-.027.625-.066.937-.117a12.144,12.144,0,0,0-1.838-1.648,22.972,22.972,0,0,0-2.081-1.375c-.172-.1-.343-.2-.511-.288s-.338-.188-.5-.274c-.33-.173-.647-.325-.947-.453a5.42,5.42,0,0,0-1.587-.479,24.087,24.087,0,0,0,3.343-1.551c-.384.848.584,1.892,2.407,2.535a9.59,9.59,0,0,0,3.2.477q.224,0,.452-.013c.149-.01.3-.024.451-.04.3-.033.609-.077.917-.133a10.994,10.994,0,0,0,1.81-.518,12.242,12.242,0,0,0-2.14-1.245c-.382-.178-.771-.343-1.157-.494s-.78-.3-1.159-.427-.75-.242-1.1-.338-.7-.19-1.024-.257a5.806,5.806,0,0,0-1.652-.145c.257-.168.522-.326.772-.5l.752-.534c.486-.376.975-.75,1.432-1.161a1.2,1.2,0,0,0,.64,1.236,3.854,3.854,0,0,0,.948.463,6.161,6.161,0,0,0,1.283.29,9.364,9.364,0,0,0,1.539.056,11.544,11.544,0,0,0,1.7-.233,11.706,11.706,0,0,0,1.741-.554c.285-.122.568-.256.848-.4q.21-.109.417-.226c.134-.081.266-.165.4-.252a12.472,12.472,0,0,0-2.343-.779,22.64,22.64,0,0,0-2.454-.43,10.5,10.5,0,0,0-3.853.043,23.525,23.525,0,0,0,2.45-2.753c-.015.462.307.832.875,1.077a3.9,3.9,0,0,0,1.027.264,6.4,6.4,0,0,0,1.31.019,8.138,8.138,0,0,0,1.516-.261,9.674,9.674,0,0,0,1.614-.576,10.1,10.1,0,0,0,1.594-.9q.384-.265.756-.563c.241-.2.47-.417.694-.639a12.056,12.056,0,0,0-2.448-.279,21.376,21.376,0,0,0-2.494.081,17.1,17.1,0,0,0-2.186.306,5.32,5.32,0,0,0-1.576.524,24.9,24.9,0,0,0,1.834-3.2c.088.46.469.751,1.079.877a5.068,5.068,0,0,0,2.345-.2,8.291,8.291,0,0,0,1.429-.569c.244-.122.5-.256.739-.405s.482-.315.722-.491.483-.364.711-.566.448-.418.665-.643A9.821,9.821,0,0,0,166.2,51.32a12.138,12.138,0,0,0-2.459.23" transform="translate(-102.6 -27.822)"/>
      <path id="Path_948" data-name="Path 948" d="M123.7,152.326h-2.07l-.64-1.969-.64,1.969h-2.07l1.675,1.217-.64,1.969,1.675-1.217,1.675,1.217-.64-1.969Z" transform="translate(-89.217 -113.407)"/>
      <path id="Path_949" data-name="Path 949" d="M97.909,21.06a3.627,3.627,0,0,1-2.395.765q-3.238,0-3.925-3.67l-6.987.864q2.1,8.6,11.481,8.6a12.639,12.639,0,0,0,7.605-2.129,6.958,6.958,0,0,0,2.934-5.976q0-4.828-4.828-6.3a5.478,5.478,0,0,0,2.875-2.061A5.889,5.889,0,0,0,105.8,7.557a6.594,6.594,0,0,0-2.669-5.5A12.674,12.674,0,0,0,89.3,2.042a9.52,9.52,0,0,0-3.739,5.809L92.04,8.872Q92.648,5.81,95.4,5.81a2.963,2.963,0,0,1,2.061.707,2.279,2.279,0,0,1,.785,1.766,2.58,2.58,0,0,1-.628,1.629q-.628.785-2.826.785H92.04v5.593H95.3a5.1,5.1,0,0,1,1.963.265,2.947,2.947,0,0,1,1.07.923,2.442,2.442,0,0,1,.5,1.521,2.54,2.54,0,0,1-.923,2.061" transform="translate(-63.811 -0.001)"/>
    </g>
  </g>
  <g id="Group_100" data-name="Group 100" transform="translate(0 9.065)">
    <g id="Group_99" data-name="Group 99" clip-path="url(#clip-path-2)">
      <rect id="Rectangle_602" data-name="Rectangle 602" width="45.374" height="47.498" transform="matrix(0.844, -0.537, 0.537, 0.844, -16.804, 10.693)" fill="url(#linear-gradient)"/>
    </g>
  </g>
  <g id="Group_102" data-name="Group 102" transform="translate(33.429 9.065)">
    <g id="Group_101" data-name="Group 101" clip-path="url(#clip-path-3)">
      <rect id="Rectangle_603" data-name="Rectangle 603" width="45.374" height="47.498" transform="translate(-16.804 10.693) rotate(-32.471)" fill="url(#linear-gradient-2)"/>
    </g>
  </g>
  <g id="Group_104" data-name="Group 104" transform="translate(29.068 36.95)">
    <g id="Group_103" data-name="Group 103" clip-path="url(#clip-path-4)">
      <rect id="Rectangle_604" data-name="Rectangle 604" width="7.34" height="7.258" transform="matrix(0.844, -0.537, 0.537, 0.844, -2.335, 1.486)" fill="url(#linear-gradient-3)"/>
    </g>
  </g>
  <g id="Group_106" data-name="Group 106" transform="translate(20.791)">
    <g id="Group_105" data-name="Group 105" clip-path="url(#clip-path-5)">
      <rect id="Rectangle_605" data-name="Rectangle 605" width="33.403" height="35.119" transform="translate(-12.508 7.959) rotate(-32.471)" fill="url(#linear-gradient-4)"/>
    </g>
  </g>
</svg>
