<svg id="Group_160" data-name="Group 160" xmlns="http://www.w3.org/2000/svg" xmlns:xlink="http://www.w3.org/1999/xlink" width="64.815" height="46.624" viewBox="0 0 64.815 46.624">
  <defs>
    <clipPath id="clip-path">
      <rect id="Rectangle_596" data-name="Rectangle 596" width="64.815" height="46.624" fill="none"/>
    </clipPath>
    <clipPath id="clip-path-2">
      <path id="Path_942" data-name="Path 942" d="M6.874,37.109a7.6,7.6,0,0,0-.719,2.2A4.258,4.258,0,0,0,6.2,41.1c.138.457.387.733.737.752l-.171-.01c-.042.713-.045,1.427-.018,2.14A6.859,6.859,0,0,0,6.094,42.9c-.277-.388-.6-.8-.961-1.214a15.379,15.379,0,0,0-2.445-2.323A8.411,8.411,0,0,0,3.194,42a8.839,8.839,0,0,0,.523,1.17,8.658,8.658,0,0,0,.638.981c.11.145.219.279.331.4s.232.236.346.337a3.086,3.086,0,0,0,.662.46.878.878,0,0,0,1.044-.036.716.716,0,0,0,.083-.093c.026.487.107.968.163,1.451.025.242.081.48.12.72s.081.48.132.718a5.794,5.794,0,0,0-1.062-1.064,16.043,16.043,0,0,0-1.56-1.14,20.229,20.229,0,0,0-1.846-1.1,12.778,12.778,0,0,0-1.95-.858c.08.263.169.524.268.781s.227.509.352.755.255.487.4.719.3.456.459.671.319.421.483.616.349.378.524.551a7.675,7.675,0,0,0,1.066.892c1.426.992,2.734,1.148,3.114.418.011-.021.021-.043.03-.064.151.522.285,1.05.471,1.561.091.256.166.518.27.77l.3.759a10.679,10.679,0,0,0-3.576-1.617,23.975,23.975,0,0,0-2.47-.6A12.352,12.352,0,0,0,0,49.918a9.99,9.99,0,0,0,1.2,1.5q.331.344.678.656c.233.206.482.4.725.577s.491.347.736.5.5.288.753.413a8.42,8.42,0,0,0,1.456.58,5.164,5.164,0,0,0,2.389.207c.622-.128,1.01-.425,1.1-.894A25.406,25.406,0,0,0,10.9,56.718,5.432,5.432,0,0,0,9.3,56.184a17.384,17.384,0,0,0-2.228-.312,21.725,21.725,0,0,0-2.542-.082,12.3,12.3,0,0,0-2.495.284c.228.227.462.446.707.651s.51.394.771.574a10.3,10.3,0,0,0,1.624.916,9.878,9.878,0,0,0,1.645.587,8.3,8.3,0,0,0,1.545.266,6.543,6.543,0,0,0,1.335-.02,3.968,3.968,0,0,0,1.046-.269c.578-.25.907-.627.892-1.1a23.977,23.977,0,0,0,2.5,2.8,10.7,10.7,0,0,0-3.927-.044,23.081,23.081,0,0,0-2.5.438,12.687,12.687,0,0,0-2.388.794c.133.088.268.175.4.257s.282.157.425.231c.285.148.574.284.864.409a11.929,11.929,0,0,0,1.775.565,11.769,11.769,0,0,0,1.729.238,9.572,9.572,0,0,0,1.569-.057,6.3,6.3,0,0,0,1.307-.3,3.924,3.924,0,0,0,.966-.473,1.222,1.222,0,0,0,.652-1.259c.466.419.965.8,1.46,1.184l.766.545c.256.181.525.342.787.513a5.917,5.917,0,0,0-1.684.148c-.328.067-.678.156-1.044.261s-.737.214-1.124.344-.785.278-1.182.436-.79.322-1.179.5a12.437,12.437,0,0,0-2.181,1.268,11.215,11.215,0,0,0,1.844.527q.471.086.935.135.231.025.46.041t.461.013a9.781,9.781,0,0,0,3.262-.486C18.408,66.066,19.394,65,19,64.139a24.546,24.546,0,0,0,3.407,1.58,5.515,5.515,0,0,0-1.618.488c-.306.13-.629.286-.965.462-.168.088-.339.182-.513.279s-.345.191-.521.294a23.313,23.313,0,0,0-2.121,1.4A12.334,12.334,0,0,0,14.8,70.323c.318.052.637.092.955.119a9.44,9.44,0,0,0,.96.024c.318-.006.632-.023.94-.051s.619-.084.916-.141.586-.121.867-.2.555-.174.815-.272a8.247,8.247,0,0,0,1.415-.675,5.138,5.138,0,0,0,1.776-1.613,1.213,1.213,0,0,0,.091-1.412,25.716,25.716,0,0,0,3.661.841,5.4,5.4,0,0,0-1.483.815,17.207,17.207,0,0,0-1.743,1.424,21.635,21.635,0,0,0-1.788,1.806,12.418,12.418,0,0,0-1.488,2.024,9.329,9.329,0,0,0,.959-.078c.32-.047.636-.1.945-.173a10.4,10.4,0,0,0,1.778-.569,9.876,9.876,0,0,0,1.549-.809,8.223,8.223,0,0,0,1.245-.954,6.77,6.77,0,0,0,.892-.991,3.985,3.985,0,0,0,.513-.953,1.208,1.208,0,0,0-.2-1.4l1.186.088,1.012.026a.172.172,0,0,0,.009-.344l-1-.025-1.169-.087a1.242,1.242,0,0,0,.429-1.35,5.461,5.461,0,0,0-.263-1.012c-.126-.37-.285-.763-.465-1.162s-.381-.8-.588-1.227-.428-.816-.643-1.234-.442-.787-.657-1.171c-.109-.187-.218-.367-.329-.535s-.216-.345-.327-.5a11.89,11.89,0,0,0-.3,2.418,10.664,10.664,0,0,0,.222,2.377,7.861,7.861,0,0,0,.717,2A3.821,3.821,0,0,0,27.245,66.6a25.4,25.4,0,0,1-3.608-.828c.449-.155.658-.612.7-1.232a8.876,8.876,0,0,0-.265-2.278c-.1-.421-.2-.875-.321-1.324-.059-.224-.121-.447-.185-.667s-.127-.451-.189-.673-.132-.437-.2-.646-.132-.431-.2-.635-.144-.394-.213-.592-.142-.381-.219-.556a11.921,11.921,0,0,0-.789,2.3,10.33,10.33,0,0,0-.271,2.371c0,.192.007.383.019.57s.034.362.059.537a7.18,7.18,0,0,0,.213.995,3.759,3.759,0,0,0,.759,1.447,24.216,24.216,0,0,1-3.358-1.558c.941-.1,1.163-1.6,1.139-3.338,0-.888-.063-1.833-.135-2.754l-.033-.338q-.015-.173-.029-.342c-.021-.225-.045-.445-.073-.657-.056-.425-.106-.846-.192-1.212a11.79,11.79,0,0,0-1.236,2.087,11.293,11.293,0,0,0-.45,1.135,9.807,9.807,0,0,0-.3,1.133,8.967,8.967,0,0,0-.154,1.106,7.079,7.079,0,0,0,.01,1.011,3.588,3.588,0,0,0,.447,1.571c-.258-.169-.524-.327-.776-.506l-.755-.537c-.488-.378-.979-.753-1.439-1.167.472.04.842-.289,1.13-.846A5.542,5.542,0,0,0,16.7,59.2c.11-.371.2-.773.29-1.21s.164-.884.231-1.339.139-.928.19-1.38.106-.908.142-1.339q.032-.327.046-.633t.018-.6a11.73,11.73,0,0,0-1.641,1.8,10.44,10.44,0,0,0-1.2,2.069,5.464,5.464,0,0,0-.452,3.67,23.641,23.641,0,0,1-2.461-2.765c.458.132.889-.116,1.282-.6a5.494,5.494,0,0,0,.565-.882c.181-.34.365-.727.536-1.13s.332-.826.5-1.265.309-.869.468-1.311.279-.86.413-1.279c.063-.207.119-.409.167-.6s.106-.394.146-.581a12,12,0,0,0-1.98,1.423,10.631,10.631,0,0,0-1.59,1.777,7.823,7.823,0,0,0-.979,1.884,3.807,3.807,0,0,0-.214,1.617,25.031,25.031,0,0,1-1.842-3.211c.844.451,1.864-.628,2.865-2.067.242-.356.509-.746.754-1.135l.364-.589q.189-.3.365-.6l.339-.587q.174-.294.328-.578c.195-.376.4-.746.549-1.095a11.173,11.173,0,0,0-4.148,2.395,5.463,5.463,0,0,0-1.89,3.181l-.295-.748c-.1-.248-.177-.506-.266-.759-.183-.5-.315-1.024-.465-1.539.019.014.039.027.06.04.726.433,1.673-.444,2.624-1.641.226-.3.479-.622.709-.951q.174-.248.337-.5c.118-.169.232-.339.34-.509s.212-.339.309-.507.207-.338.3-.505.18-.332.257-.5.167-.327.235-.487A8.9,8.9,0,0,0,9.442,45.41,7.4,7.4,0,0,0,8.2,46.731a4.114,4.114,0,0,0-.63,1.309c-.051-.234-.087-.472-.131-.708s-.093-.471-.118-.71c-.055-.477-.136-.951-.161-1.431a.624.624,0,0,0,.1.076.93.93,0,0,0,1.036-.14,3.766,3.766,0,0,0,.589-.49c.1-.1.2-.205.3-.317s.208-.232.31-.355c.206-.248.4-.515.594-.792s.388-.566.567-.857a10.714,10.714,0,0,0,.9-1.754,7.031,7.031,0,0,0-2.8,1.335,6.282,6.282,0,0,0-1.039,1.024,4.1,4.1,0,0,0-.62,1.052c-.026-.7-.023-1.407.018-2.11l-.172-.009c.7.029,1.087-.94,1.286-2.224a16.514,16.514,0,0,0,.044-4.421,6.759,6.759,0,0,0-1.394,1.9" transform="translate(0 -35.209)" fill="none"/>
    </clipPath>
    <linearGradient id="linear-gradient" x1="0.168" y1="0.889" x2="0.173" y2="0.889" gradientUnits="objectBoundingBox">
      <stop offset="0" stop-color="#f7f8f9"/>
      <stop offset="0.074" stop-color="#edeeef"/>
      <stop offset="0.197" stop-color="#d5d6d6"/>
      <stop offset="0.249" stop-color="#c9caca"/>
      <stop offset="0.408" stop-color="#979196"/>
      <stop offset="0.842" stop-color="#c7d8e2"/>
      <stop offset="1" stop-color="#a4a4a1"/>
    </linearGradient>
    <clipPath id="clip-path-3">
      <path id="Path_943" data-name="Path 943" d="M158.554,39.63c.2,1.284.585,2.253,1.285,2.224l-.171.009c.041.7.044,1.407.018,2.11a4.108,4.108,0,0,0-.62-1.052,6.3,6.3,0,0,0-1.039-1.023,7.031,7.031,0,0,0-2.8-1.335,10.732,10.732,0,0,0,.9,1.754c.179.292.37.58.567.857s.389.544.594.792c.1.124.208.243.31.355s.2.219.3.317a3.775,3.775,0,0,0,.589.49.93.93,0,0,0,1.036.14.634.634,0,0,0,.1-.076c-.025.48-.105.954-.161,1.431-.025.239-.08.473-.118.71s-.08.473-.131.708a4.116,4.116,0,0,0-.63-1.309,7.393,7.393,0,0,0-1.24-1.321,8.895,8.895,0,0,0-3.572-1.769c.069.16.149.322.235.487s.163.329.256.5.2.336.3.505.2.338.31.507.222.34.34.509.221.334.337.5c.229.329.482.653.709.951.95,1.2,1.9,2.074,2.623,1.641.021-.012.041-.026.06-.04-.15.515-.281,1.035-.465,1.539-.09.253-.163.511-.266.759l-.295.748a5.463,5.463,0,0,0-1.89-3.181,11.175,11.175,0,0,0-4.148-2.395c.15.348.355.719.549,1.095.1.189.212.382.328.578l.339.587q.176.3.365.6l.364.589c.244.389.512.779.754,1.135,1,1.439,2.021,2.519,2.865,2.067a25.057,25.057,0,0,1-1.842,3.211,3.808,3.808,0,0,0-.214-1.617,7.823,7.823,0,0,0-.979-1.884,10.642,10.642,0,0,0-1.591-1.777,12,12,0,0,0-1.98-1.423c.039.187.092.382.146.581s.1.4.167.6c.134.419.259.841.413,1.279s.3.873.469,1.311.33.861.5,1.265.355.79.536,1.13a5.508,5.508,0,0,0,.565.882c.393.485.824.733,1.282.6a23.621,23.621,0,0,1-2.461,2.765,5.461,5.461,0,0,0-.451-3.67,10.44,10.44,0,0,0-1.2-2.069,11.716,11.716,0,0,0-1.641-1.8q.009.286.018.6t.046.633c.036.431.077.874.142,1.339s.114.916.19,1.38.142.905.231,1.339.181.839.29,1.21a5.532,5.532,0,0,0,.377.982c.288.556.658.886,1.13.846-.459.413-.951.788-1.439,1.167l-.755.537c-.252.179-.518.337-.776.506a3.589,3.589,0,0,0,.447-1.571,7.045,7.045,0,0,0,.01-1.011,8.958,8.958,0,0,0-.154-1.106,9.864,9.864,0,0,0-.3-1.133,11.3,11.3,0,0,0-.45-1.135A11.819,11.819,0,0,0,146.93,55.2c-.086.366-.137.786-.193,1.212-.028.212-.052.431-.073.657l-.029.342q-.016.168-.033.338c-.072.921-.133,1.866-.135,2.754-.024,1.74.2,3.236,1.139,3.339a24.174,24.174,0,0,1-3.358,1.558,3.749,3.749,0,0,0,.759-1.447,7.145,7.145,0,0,0,.213-.995c.025-.175.045-.354.059-.537s.018-.378.019-.57a10.318,10.318,0,0,0-.271-2.371,11.9,11.9,0,0,0-.789-2.3c-.076.175-.149.36-.219.556s-.145.385-.213.592-.136.416-.2.635-.136.425-.2.646l-.189.673c-.065.22-.126.443-.185.667-.118.449-.224.9-.321,1.324a8.9,8.9,0,0,0-.265,2.278c.039.62.248,1.077.7,1.232a25.384,25.384,0,0,1-3.608.828,3.824,3.824,0,0,0,1.042-1.255,7.869,7.869,0,0,0,.718-2,10.664,10.664,0,0,0,.221-2.377,11.886,11.886,0,0,0-.3-2.418c-.11.155-.216.332-.327.5s-.22.348-.329.535c-.215.384-.44.758-.657,1.171s-.437.811-.643,1.234-.407.828-.587,1.227-.339.793-.465,1.163a5.419,5.419,0,0,0-.263,1.012,1.242,1.242,0,0,0,.429,1.35l-1.169.087-1,.025a.172.172,0,0,0,.009.343l1.012-.025,1.186-.088a1.208,1.208,0,0,0-.2,1.4,4,4,0,0,0,.513.953,6.771,6.771,0,0,0,.893.991,8.228,8.228,0,0,0,1.245.954,9.875,9.875,0,0,0,1.549.809,10.4,10.4,0,0,0,1.778.569c.31.069.626.127.945.173a9.329,9.329,0,0,0,.959.078,12.408,12.408,0,0,0-1.488-2.024,21.6,21.6,0,0,0-1.788-1.806,17.188,17.188,0,0,0-1.743-1.424,5.394,5.394,0,0,0-1.483-.815,25.7,25.7,0,0,0,3.661-.841,1.213,1.213,0,0,0,.091,1.412,5.136,5.136,0,0,0,1.776,1.613,8.247,8.247,0,0,0,1.415.675q.39.147.815.272c.28.078.569.142.867.2s.6.1.916.141.622.045.94.051a9.439,9.439,0,0,0,.96-.024c.318-.028.637-.067.955-.119a12.337,12.337,0,0,0-1.873-1.679,23.386,23.386,0,0,0-2.121-1.4q-.263-.153-.521-.294c-.174-.1-.345-.191-.513-.279-.336-.176-.659-.332-.965-.462a5.516,5.516,0,0,0-1.617-.488,24.559,24.559,0,0,0,3.407-1.58c-.391.864.6,1.928,2.452,2.583a9.783,9.783,0,0,0,3.263.486c.152,0,.306-.006.46-.013s.306-.025.46-.041c.309-.033.621-.078.935-.135a11.222,11.222,0,0,0,1.844-.527,12.457,12.457,0,0,0-2.181-1.268c-.39-.182-.786-.35-1.179-.5s-.8-.305-1.182-.436-.764-.246-1.124-.344-.716-.194-1.044-.261a5.917,5.917,0,0,0-1.684-.148c.262-.172.531-.332.787-.513l.766-.545c.5-.384.993-.764,1.46-1.184a1.222,1.222,0,0,0,.652,1.259,3.919,3.919,0,0,0,.966.473,6.3,6.3,0,0,0,1.307.3,9.571,9.571,0,0,0,1.569.057,11.762,11.762,0,0,0,1.729-.238,11.923,11.923,0,0,0,1.775-.565c.29-.124.579-.261.864-.409q.213-.111.424-.231c.137-.082.271-.168.4-.257a12.689,12.689,0,0,0-2.388-.794,23.075,23.075,0,0,0-2.5-.438,10.7,10.7,0,0,0-3.927.044,23.978,23.978,0,0,0,2.5-2.8c-.016.471.313.848.891,1.1a3.97,3.97,0,0,0,1.046.269,6.543,6.543,0,0,0,1.335.02A8.3,8.3,0,0,0,160,58.8a9.886,9.886,0,0,0,1.645-.587,10.314,10.314,0,0,0,1.624-.916q.392-.27.771-.574c.246-.205.479-.424.707-.651a12.305,12.305,0,0,0-2.495-.284,21.724,21.724,0,0,0-2.542.082,17.387,17.387,0,0,0-2.228.312,5.43,5.43,0,0,0-1.606.534,25.381,25.381,0,0,0,1.869-3.258c.09.469.478.765,1.1.894a5.165,5.165,0,0,0,2.39-.207,8.427,8.427,0,0,0,1.456-.58c.248-.124.5-.261.753-.413s.491-.321.736-.5.492-.371.725-.577.457-.426.678-.656a9.994,9.994,0,0,0,1.2-1.5,12.354,12.354,0,0,0-2.506.235,23.957,23.957,0,0,0-2.47.6,10.68,10.68,0,0,0-3.576,1.617l.3-.759c.1-.252.179-.514.27-.77.186-.512.32-1.039.471-1.561.009.022.019.043.03.064.38.73,1.688.575,3.114-.418a7.66,7.66,0,0,0,1.066-.892c.176-.173.352-.357.525-.551s.326-.4.483-.616.311-.439.459-.671.271-.473.4-.719.242-.5.352-.755.189-.518.268-.781a12.81,12.81,0,0,0-1.95.858,20.2,20.2,0,0,0-1.846,1.1,16.032,16.032,0,0,0-1.56,1.14,5.784,5.784,0,0,0-1.062,1.064c.051-.238.088-.479.132-.718s.094-.478.12-.72c.056-.484.137-.965.163-1.451a.714.714,0,0,0,.082.093.878.878,0,0,0,1.044.036,3.08,3.08,0,0,0,.661-.46q.172-.151.346-.337c.112-.124.221-.258.331-.4a8.658,8.658,0,0,0,.638-.981,8.9,8.9,0,0,0,.523-1.17,8.4,8.4,0,0,0,.507-2.634,15.388,15.388,0,0,0-2.445,2.323c-.36.415-.685.826-.962,1.214a6.86,6.86,0,0,0-.654,1.082c.027-.713.024-1.427-.018-2.14l-.171.01c.351-.019.6-.295.738-.752a4.258,4.258,0,0,0,.046-1.8,7.593,7.593,0,0,0-.719-2.2,6.759,6.759,0,0,0-1.394-1.9,16.511,16.511,0,0,0,.044,4.421" transform="translate(-136.029 -35.209)" fill="none"/>
    </clipPath>
    <linearGradient id="linear-gradient-2" x1="-0.569" y1="0.892" x2="-0.564" y2="0.892" xlink:href="#linear-gradient"/>
    <clipPath id="clip-path-4">
      <path id="Path_944" data-name="Path 944" d="M120.394,150.687h-2.109l1.707,1.24-.652,2.006,1.707-1.24,1.707,1.24-.652-2.006,1.707-1.24H121.7l-.652-2.006Z" transform="translate(-118.285 -148.68)" fill="none"/>
    </clipPath>
    <linearGradient id="linear-gradient-3" x1="-3.83" y1="1.409" x2="-3.796" y2="1.409" xlink:href="#linear-gradient"/>
    <clipPath id="clip-path-5">
      <path id="Path_945" data-name="Path 945" d="M98.158,0a11.212,11.212,0,0,0-7.11,2.35,10.792,10.792,0,0,0-3.77,7.17l6.9,1.34q.361-4.72,3.371-4.72a2.548,2.548,0,0,1,1.946.79,2.927,2.927,0,0,1,.743,2.09,4.524,4.524,0,0,1-.851,2.6,21.094,21.094,0,0,1-3.646,3.55q-2.795,2.31-3.816,3.01l-4.647,3.26v6.28h20.8l.3-6.7H97.738q7.42-4.9,8.95-7.28a9.134,9.134,0,0,0,1.53-5.02,7.892,7.892,0,0,0-2.81-6.34A10.832,10.832,0,0,0,98.158,0Z" transform="translate(-87.278 0)" fill="none"/>
    </clipPath>
    <linearGradient id="linear-gradient-4" x1="-0.492" y1="1.444" x2="-0.484" y2="1.444" xlink:href="#linear-gradient"/>
  </defs>
  <g id="Group_87" data-name="Group 87" transform="translate(0 0)">
    <g id="Group_86" data-name="Group 86" clip-path="url(#clip-path)">
      <path id="Path_938" data-name="Path 938" d="M30.749,67.032a.172.172,0,0,0-.168-.172l-1-.025-1.169-.087a1.242,1.242,0,0,0,.429-1.35,5.444,5.444,0,0,0-.263-1.012c-.126-.37-.285-.763-.465-1.162s-.381-.8-.587-1.227-.428-.815-.643-1.233-.441-.787-.657-1.171q-.163-.281-.329-.535c-.111-.168-.216-.345-.327-.5a11.925,11.925,0,0,0-.3,2.418,10.664,10.664,0,0,0,.222,2.377,7.872,7.872,0,0,0,.717,2A3.83,3.83,0,0,0,27.245,66.6a25.39,25.39,0,0,1-3.608-.829c.449-.155.658-.612.7-1.232a8.888,8.888,0,0,0-.265-2.278c-.1-.421-.2-.875-.321-1.324-.059-.224-.121-.447-.185-.667l-.19-.673c-.065-.221-.132-.437-.2-.646s-.132-.431-.2-.635-.144-.394-.213-.592-.142-.381-.219-.556a11.908,11.908,0,0,0-.79,2.3,10.349,10.349,0,0,0-.271,2.371c0,.192.007.383.019.57s.034.362.059.538a7.112,7.112,0,0,0,.213.994A3.755,3.755,0,0,0,22.53,65.4a24.233,24.233,0,0,1-3.358-1.558c.941-.1,1.163-1.6,1.139-3.339,0-.888-.063-1.833-.135-2.754l-.033-.338q-.015-.172-.029-.342c-.021-.225-.045-.445-.073-.657-.056-.425-.106-.846-.193-1.212a11.8,11.8,0,0,0-1.236,2.087,11.316,11.316,0,0,0-.45,1.135,9.924,9.924,0,0,0-.3,1.133,9.008,9.008,0,0,0-.154,1.106,7.08,7.08,0,0,0,.01,1.011,3.588,3.588,0,0,0,.447,1.571c-.258-.169-.524-.327-.776-.506l-.755-.537c-.488-.378-.979-.754-1.439-1.167.472.04.842-.289,1.13-.845A5.579,5.579,0,0,0,16.7,59.2c.109-.371.2-.773.29-1.21s.163-.884.231-1.339.139-.928.19-1.38.106-.909.142-1.339c.021-.218.037-.43.046-.633l.018-.6a11.717,11.717,0,0,0-1.641,1.8,10.447,10.447,0,0,0-1.2,2.068,5.462,5.462,0,0,0-.451,3.67,23.64,23.64,0,0,1-2.461-2.765c.458.132.888-.116,1.282-.6a5.479,5.479,0,0,0,.565-.881c.181-.34.365-.727.536-1.13s.332-.826.5-1.265.309-.869.468-1.311.279-.86.412-1.279c.063-.207.119-.409.167-.6s.107-.394.146-.581a11.965,11.965,0,0,0-1.98,1.423,10.635,10.635,0,0,0-1.591,1.778,7.812,7.812,0,0,0-.979,1.884,3.811,3.811,0,0,0-.214,1.617,25.031,25.031,0,0,1-1.842-3.211c.844.451,1.864-.628,2.865-2.067.241-.356.509-.746.754-1.135l.364-.589c.125-.2.248-.4.365-.6l.339-.587c.116-.2.226-.389.328-.577.195-.376.4-.746.549-1.094a11.169,11.169,0,0,0-4.148,2.394,5.461,5.461,0,0,0-1.89,3.182l-.3-.748c-.1-.248-.176-.506-.266-.759-.183-.5-.315-1.024-.465-1.539.019.014.039.027.06.04.727.433,1.673-.444,2.624-1.641.226-.3.479-.622.709-.951q.174-.247.337-.5c.118-.169.232-.339.34-.509s.212-.339.309-.507.207-.338.3-.505.179-.332.256-.5.167-.327.235-.487A8.9,8.9,0,0,0,9.442,45.41,7.386,7.386,0,0,0,8.2,46.731a4.118,4.118,0,0,0-.63,1.309c-.05-.234-.087-.472-.131-.708s-.093-.471-.118-.71c-.055-.477-.136-.951-.161-1.43a.636.636,0,0,0,.1.076.93.93,0,0,0,1.036-.14,3.777,3.777,0,0,0,.589-.49c.1-.1.2-.205.3-.317s.208-.232.31-.355c.206-.248.4-.515.594-.792s.388-.566.567-.857a10.734,10.734,0,0,0,.9-1.754,7.027,7.027,0,0,0-2.8,1.335,6.273,6.273,0,0,0-1.039,1.024,4.1,4.1,0,0,0-.62,1.052c-.026-.7-.023-1.407.018-2.11l-.171-.01c.7.029,1.086-.94,1.285-2.223a16.506,16.506,0,0,0,.044-4.421,6.758,6.758,0,0,0-1.394,1.9,7.6,7.6,0,0,0-.719,2.2A4.258,4.258,0,0,0,6.2,41.1c.138.457.387.733.737.752l-.171-.01c-.042.713-.044,1.427-.018,2.14A6.84,6.84,0,0,0,6.094,42.9c-.277-.387-.6-.8-.961-1.214a15.4,15.4,0,0,0-2.445-2.323A8.411,8.411,0,0,0,3.194,42a8.857,8.857,0,0,0,.523,1.17,8.658,8.658,0,0,0,.638.981c.11.145.219.279.331.4s.232.236.346.337a3.079,3.079,0,0,0,.661.46.878.878,0,0,0,1.044-.036.716.716,0,0,0,.083-.093c.026.487.107.968.163,1.451.025.242.081.48.119.72s.082.48.133.718a5.8,5.8,0,0,0-1.062-1.064,16.074,16.074,0,0,0-1.56-1.14,20.229,20.229,0,0,0-1.846-1.1,12.825,12.825,0,0,0-1.95-.858c.08.263.169.524.268.781s.227.509.352.755.255.487.4.719.3.456.459.671.319.421.483.616.349.378.525.551a7.644,7.644,0,0,0,1.066.892c1.426.992,2.734,1.148,3.114.418.011-.021.021-.043.03-.064.152.522.286,1.05.472,1.562.091.256.166.518.27.77l.3.759a10.689,10.689,0,0,0-3.576-1.617,23.917,23.917,0,0,0-2.47-.6A12.352,12.352,0,0,0,0,49.918a10.006,10.006,0,0,0,1.2,1.5q.331.344.678.656c.233.206.482.4.725.577s.491.347.736.5.505.288.754.413a8.447,8.447,0,0,0,1.456.579,5.165,5.165,0,0,0,2.39.207c.622-.128,1.01-.425,1.1-.894A25.358,25.358,0,0,0,10.9,56.718,5.433,5.433,0,0,0,9.3,56.184a17.481,17.481,0,0,0-2.228-.311,21.78,21.78,0,0,0-2.542-.082,12.266,12.266,0,0,0-2.495.284c.228.227.462.446.707.651s.51.394.771.574a10.294,10.294,0,0,0,1.624.917,9.854,9.854,0,0,0,1.645.586,8.3,8.3,0,0,0,1.545.266,6.561,6.561,0,0,0,1.335-.019,3.981,3.981,0,0,0,1.046-.269c.578-.25.907-.627.891-1.1a23.977,23.977,0,0,0,2.5,2.8,10.7,10.7,0,0,0-3.927-.044,23.075,23.075,0,0,0-2.5.438,12.729,12.729,0,0,0-2.388.794c.133.088.268.175.4.257s.282.157.425.23c.285.148.574.284.864.408a11.93,11.93,0,0,0,1.775.565,11.8,11.8,0,0,0,1.729.238,9.541,9.541,0,0,0,1.569-.057,6.293,6.293,0,0,0,1.307-.3,3.919,3.919,0,0,0,.966-.473,1.222,1.222,0,0,0,.652-1.259c.466.419.965.8,1.46,1.183l.766.545c.255.181.525.342.787.513a5.907,5.907,0,0,0-1.684.148c-.328.067-.678.156-1.044.261s-.737.213-1.124.344-.785.278-1.182.436-.789.321-1.179.5a12.462,12.462,0,0,0-2.181,1.268,11.249,11.249,0,0,0,1.844.527c.314.057.626.1.935.135q.231.025.46.041t.461.013a9.786,9.786,0,0,0,3.262-.486C18.408,66.066,19.394,65,19,64.139a24.546,24.546,0,0,0,3.407,1.58,5.522,5.522,0,0,0-1.618.488c-.306.13-.629.286-.965.462q-.252.132-.513.279t-.521.294a23.368,23.368,0,0,0-2.121,1.4A12.347,12.347,0,0,0,14.8,70.323c.318.052.637.092.955.119a9.229,9.229,0,0,0,.96.024c.318-.006.632-.022.94-.051s.619-.084.916-.141.586-.121.867-.2.555-.174.815-.272a8.269,8.269,0,0,0,1.415-.675,5.138,5.138,0,0,0,1.776-1.613,1.213,1.213,0,0,0,.091-1.411,25.74,25.74,0,0,0,3.661.84,5.388,5.388,0,0,0-1.483.815,17.207,17.207,0,0,0-1.743,1.424,21.635,21.635,0,0,0-1.788,1.806,12.392,12.392,0,0,0-1.488,2.024,9.329,9.329,0,0,0,.959-.078c.32-.047.636-.1.945-.173a10.388,10.388,0,0,0,1.778-.569,9.844,9.844,0,0,0,1.549-.809,8.177,8.177,0,0,0,1.245-.954,6.787,6.787,0,0,0,.893-.991,4,4,0,0,0,.513-.953,1.208,1.208,0,0,0-.2-1.4l1.186.088,1.012.026a.172.172,0,0,0,.176-.172" transform="translate(0 -26.392)"/>
      <path id="Path_939" data-name="Path 939" d="M164.272,50.153a23.919,23.919,0,0,0-2.47.6,10.676,10.676,0,0,0-3.576,1.617l.3-.759c.1-.251.179-.514.27-.77.186-.512.32-1.039.472-1.562.009.022.019.043.03.064.38.731,1.688.575,3.114-.417a7.679,7.679,0,0,0,1.066-.892c.176-.173.352-.357.525-.551s.326-.4.483-.616.311-.439.459-.671.271-.473.4-.719.243-.5.352-.755.189-.517.268-.78a12.82,12.82,0,0,0-1.95.857,20.227,20.227,0,0,0-1.846,1.1,15.949,15.949,0,0,0-1.56,1.14,5.778,5.778,0,0,0-1.062,1.064c.051-.238.088-.479.132-.718s.094-.478.12-.72c.056-.484.137-.965.163-1.451a.684.684,0,0,0,.083.093.878.878,0,0,0,1.044.036,3.1,3.1,0,0,0,.661-.46q.172-.151.346-.337c.112-.123.221-.258.331-.4a8.66,8.66,0,0,0,.638-.981,8.9,8.9,0,0,0,.523-1.17,8.412,8.412,0,0,0,.507-2.634,15.4,15.4,0,0,0-2.445,2.323c-.36.415-.685.826-.962,1.214a6.877,6.877,0,0,0-.654,1.082c.026-.713.024-1.427-.018-2.14l-.171.01c.35-.019.6-.295.737-.752a4.258,4.258,0,0,0,.046-1.8,7.6,7.6,0,0,0-.719-2.2,6.754,6.754,0,0,0-1.394-1.9,16.5,16.5,0,0,0,.044,4.421c.2,1.284.585,2.253,1.285,2.224l-.171.01c.041.7.044,1.407.018,2.11a4.1,4.1,0,0,0-.62-1.052,6.3,6.3,0,0,0-1.039-1.024,7.031,7.031,0,0,0-2.8-1.335,10.741,10.741,0,0,0,.9,1.754c.179.292.37.58.567.857s.388.544.594.792c.1.124.208.243.31.355s.2.219.3.317a3.778,3.778,0,0,0,.589.49.931.931,0,0,0,1.036.14.653.653,0,0,0,.1-.076c-.025.48-.106.954-.161,1.431-.025.239-.08.473-.118.71s-.08.473-.131.708a4.12,4.12,0,0,0-.63-1.31,7.4,7.4,0,0,0-1.24-1.321,8.9,8.9,0,0,0-3.572-1.769c.069.16.149.322.235.487s.163.329.256.5.2.336.3.505.2.338.309.507.223.34.34.509.221.334.337.5c.229.329.482.653.709.951.95,1.2,1.9,2.074,2.624,1.642.021-.013.041-.026.06-.04-.15.515-.281,1.035-.465,1.539-.09.252-.164.511-.266.759l-.295.748a5.462,5.462,0,0,0-1.89-3.181,11.169,11.169,0,0,0-4.148-2.395c.15.348.355.719.549,1.094.1.189.212.382.328.578l.339.587c.117.2.239.4.365.6l.364.589c.244.39.512.779.754,1.135,1,1.439,2.021,2.519,2.865,2.068a25.025,25.025,0,0,1-1.842,3.211,3.811,3.811,0,0,0-.214-1.617,7.818,7.818,0,0,0-.979-1.884,10.654,10.654,0,0,0-1.591-1.778,11.993,11.993,0,0,0-1.98-1.423c.039.187.092.382.146.581s.1.4.167.605c.133.418.259.841.412,1.279s.3.873.468,1.311.33.861.5,1.265.355.79.536,1.129a5.482,5.482,0,0,0,.565.882c.393.485.824.733,1.282.6a23.641,23.641,0,0,1-2.461,2.765,5.462,5.462,0,0,0-.451-3.67,10.438,10.438,0,0,0-1.2-2.068,11.705,11.705,0,0,0-1.641-1.8q.009.285.018.6c.009.2.025.415.046.633.036.431.077.874.142,1.339s.114.916.19,1.38.142.905.231,1.339.181.839.29,1.211a5.576,5.576,0,0,0,.378.982c.288.556.658.886,1.13.846-.46.413-.951.788-1.439,1.167l-.755.537c-.252.178-.518.337-.776.506a3.589,3.589,0,0,0,.447-1.571,7.042,7.042,0,0,0,.01-1.01,9.017,9.017,0,0,0-.154-1.106,9.925,9.925,0,0,0-.3-1.133,11.321,11.321,0,0,0-.45-1.135A11.815,11.815,0,0,0,146.93,55.2c-.086.366-.137.787-.193,1.212-.028.212-.052.431-.073.657l-.029.342-.033.338c-.072.921-.133,1.866-.135,2.753-.024,1.74.2,3.236,1.139,3.339a24.2,24.2,0,0,1-3.358,1.558,3.752,3.752,0,0,0,.759-1.447,7.114,7.114,0,0,0,.213-.995c.025-.175.045-.355.059-.538s.018-.378.019-.57a10.347,10.347,0,0,0-.271-2.371,11.9,11.9,0,0,0-.79-2.3c-.077.175-.149.36-.219.556s-.145.385-.213.592-.136.416-.2.635-.136.425-.2.646l-.19.673c-.064.22-.126.443-.185.667-.118.449-.224.9-.321,1.323a8.892,8.892,0,0,0-.265,2.278c.039.62.248,1.077.7,1.232a25.353,25.353,0,0,1-3.608.828,3.829,3.829,0,0,0,1.042-1.255,7.873,7.873,0,0,0,.718-2,10.665,10.665,0,0,0,.222-2.377,11.931,11.931,0,0,0-.3-2.419c-.11.155-.216.333-.327.5s-.22.348-.329.535c-.215.384-.44.758-.657,1.171s-.437.811-.643,1.233-.407.828-.587,1.227-.339.793-.465,1.163a5.436,5.436,0,0,0-.263,1.011,1.242,1.242,0,0,0,.429,1.35l-1.169.086-1,.026a.172.172,0,1,0,.009.343l1.012-.025,1.186-.088a1.208,1.208,0,0,0-.2,1.4,4,4,0,0,0,.513.953,6.784,6.784,0,0,0,.893.991,8.21,8.21,0,0,0,1.245.954,9.867,9.867,0,0,0,1.549.809,10.41,10.41,0,0,0,1.778.569c.31.069.626.127.945.174a9.392,9.392,0,0,0,.959.078,12.407,12.407,0,0,0-1.488-2.024,21.673,21.673,0,0,0-1.788-1.806,17.225,17.225,0,0,0-1.743-1.425,5.384,5.384,0,0,0-1.483-.815,25.707,25.707,0,0,0,3.661-.841,1.213,1.213,0,0,0,.091,1.412,5.136,5.136,0,0,0,1.776,1.613,8.25,8.25,0,0,0,1.415.675c.26.1.533.189.815.272s.569.142.867.2.6.1.916.141.622.045.94.05a9.3,9.3,0,0,0,.96-.024c.318-.027.637-.067.955-.119a12.379,12.379,0,0,0-1.873-1.679,23.365,23.365,0,0,0-2.121-1.4c-.175-.1-.349-.2-.521-.294s-.345-.191-.513-.279c-.336-.176-.659-.332-.965-.462a5.517,5.517,0,0,0-1.618-.489,24.517,24.517,0,0,0,3.407-1.58c-.391.864.6,1.928,2.453,2.583a9.773,9.773,0,0,0,3.262.486q.228,0,.461-.013t.46-.041c.309-.033.621-.078.935-.135a11.2,11.2,0,0,0,1.844-.527,12.48,12.48,0,0,0-2.181-1.268c-.39-.182-.786-.35-1.179-.5s-.8-.305-1.182-.435-.764-.246-1.124-.344-.717-.194-1.044-.261a5.907,5.907,0,0,0-1.684-.148c.262-.172.532-.332.787-.513l.766-.545c.5-.384.994-.764,1.46-1.184a1.222,1.222,0,0,0,.652,1.259,3.928,3.928,0,0,0,.966.472,6.294,6.294,0,0,0,1.307.3,9.517,9.517,0,0,0,1.569.057,11.731,11.731,0,0,0,1.729-.237,11.931,11.931,0,0,0,1.775-.565c.29-.124.579-.261.864-.408q.214-.112.425-.231c.137-.082.271-.168.4-.257a12.711,12.711,0,0,0-2.388-.794,23.078,23.078,0,0,0-2.5-.438,10.7,10.7,0,0,0-3.927.044,23.98,23.98,0,0,0,2.5-2.805c-.016.471.313.848.891,1.1a3.981,3.981,0,0,0,1.046.269,6.525,6.525,0,0,0,1.335.019A8.3,8.3,0,0,0,160,58.8a9.856,9.856,0,0,0,1.645-.587,10.294,10.294,0,0,0,1.624-.916q.392-.27.771-.574c.246-.205.479-.424.707-.651a12.285,12.285,0,0,0-2.495-.284,21.783,21.783,0,0,0-2.542.082,17.434,17.434,0,0,0-2.228.312,5.422,5.422,0,0,0-1.606.534,25.376,25.376,0,0,0,1.869-3.258c.09.469.478.765,1.1.894a5.165,5.165,0,0,0,2.39-.206,8.448,8.448,0,0,0,1.456-.58c.248-.124.5-.261.754-.413s.491-.321.736-.5.492-.371.725-.577.457-.426.678-.655a10.01,10.01,0,0,0,1.2-1.5,12.37,12.37,0,0,0-2.506.235" transform="translate(-101.963 -26.392)"/>
      <path id="Path_940" data-name="Path 940" d="M123.808,150.686H121.7l-.652-2.006-.652,2.006h-2.11l1.707,1.24-.652,2.006,1.707-1.24,1.707,1.24-.652-2.006Z" transform="translate(-88.662 -111.446)"/>
      <path id="Path_941" data-name="Path 941" d="M108.378,21.02H97.738q7.42-4.9,8.95-7.28a9.134,9.134,0,0,0,1.53-5.02,7.892,7.892,0,0,0-2.81-6.34A10.832,10.832,0,0,0,98.158,0a11.213,11.213,0,0,0-7.11,2.35,10.791,10.791,0,0,0-3.77,7.17l6.9,1.34q.361-4.72,3.371-4.72a2.548,2.548,0,0,1,1.946.79,2.928,2.928,0,0,1,.743,2.09,4.524,4.524,0,0,1-.851,2.6,21.094,21.094,0,0,1-3.646,3.55q-2.795,2.31-3.816,3.01l-4.647,3.26v6.28h20.8Z" transform="translate(-65.421 0)"/>
    </g>
  </g>
  <g id="Group_89" data-name="Group 89" transform="translate(0 8.817)">
    <g id="Group_88" data-name="Group 88" clip-path="url(#clip-path-2)">
      <rect id="Rectangle_597" data-name="Rectangle 597" width="46.239" height="48.404" transform="matrix(0.844, -0.537, 0.537, 0.844, -17.124, 10.897)" fill="url(#linear-gradient)"/>
    </g>
  </g>
  <g id="Group_91" data-name="Group 91" transform="translate(34.066 8.817)">
    <g id="Group_90" data-name="Group 90" clip-path="url(#clip-path-3)">
      <rect id="Rectangle_598" data-name="Rectangle 598" width="46.239" height="48.404" transform="translate(-17.124 10.897) rotate(-32.471)" fill="url(#linear-gradient-2)"/>
    </g>
  </g>
  <g id="Group_93" data-name="Group 93" transform="translate(29.622 37.234)">
    <g id="Group_92" data-name="Group 92" clip-path="url(#clip-path-4)">
      <rect id="Rectangle_599" data-name="Rectangle 599" width="7.48" height="7.397" transform="matrix(0.844, -0.537, 0.537, 0.844, -2.379, 1.514)" fill="url(#linear-gradient-3)"/>
    </g>
  </g>
  <g id="Group_95" data-name="Group 95" transform="translate(21.857 0)">
    <g id="Group_94" data-name="Group 94" transform="translate(0 0)" clip-path="url(#clip-path-5)">
      <rect id="Rectangle_600" data-name="Rectangle 600" width="32.684" height="34.715" transform="matrix(0.844, -0.537, 0.537, 0.844, -12.556, 7.99)" fill="url(#linear-gradient-4)"/>
    </g>
  </g>
</svg>
